<?xml version="1.0" encoding="utf-8" standalone="no"?>
<!DOCTYPE svg PUBLIC "-//W3C//DTD SVG 1.1//EN"
  "http://www.w3.org/Graphics/SVG/1.1/DTD/svg11.dtd">
<svg xmlns:xlink="http://www.w3.org/1999/xlink" width="451.045pt" height="353.32pt" viewBox="0 0 451.045 353.32" xmlns="http://www.w3.org/2000/svg" version="1.1">
 <metadata>
  <rdf:RDF xmlns:dc="http://purl.org/dc/elements/1.1/" xmlns:cc="http://creativecommons.org/ns#" xmlns:rdf="http://www.w3.org/1999/02/22-rdf-syntax-ns#">
   <cc:Work>
    <dc:type rdf:resource="http://purl.org/dc/dcmitype/StillImage"/>
    <dc:date>2024-06-03T13:49:05.926486</dc:date>
    <dc:format>image/svg+xml</dc:format>
    <dc:creator>
     <cc:Agent>
      <dc:title>Matplotlib v3.7.1, https://matplotlib.org/</dc:title>
     </cc:Agent>
    </dc:creator>
   </cc:Work>
  </rdf:RDF>
 </metadata>
 <defs>
  <style type="text/css">*{stroke-linejoin: round; stroke-linecap: butt}</style>
 </defs>
 <g id="figure_1">
  <g id="patch_1">
   <path d="M 0 353.32 
L 451.045 353.32 
L 451.045 -0 
L 0 -0 
z
" style="fill: #ffffff"/>
  </g>
  <g id="axes_1">
   <g id="patch_2">
    <path d="M 43.78125 288.912 
L 400.90125 288.912 
L 400.90125 22.8 
L 43.78125 22.8 
z
" style="fill: #ffffff"/>
   </g>
   <g id="matplotlib.axis_1">
    <g id="xtick_1">
     <g id="line2d_1">
      <defs>
       <path id="mbaf40a5393" d="M 0 0 
L 0 3.5 
" style="stroke: #000000; stroke-width: 0.8"/>
      </defs>
      <g>
       <use xlink:href="#mbaf40a5393" x="59.363367" y="288.912" style="stroke: #000000; stroke-width: 0.8"/>
      </g>
     </g>
     <g id="text_1">
      <!-- 0 -->
      <g transform="translate(56.182117 303.510437) scale(0.1 -0.1)">
       <defs>
        <path id="DejaVuSans-30" d="M 2034 4250 
Q 1547 4250 1301 3770 
Q 1056 3291 1056 2328 
Q 1056 1369 1301 889 
Q 1547 409 2034 409 
Q 2525 409 2770 889 
Q 3016 1369 3016 2328 
Q 3016 3291 2770 3770 
Q 2525 4250 2034 4250 
z
M 2034 4750 
Q 2819 4750 3233 4129 
Q 3647 3509 3647 2328 
Q 3647 1150 3233 529 
Q 2819 -91 2034 -91 
Q 1250 -91 836 529 
Q 422 1150 422 2328 
Q 422 3509 836 4129 
Q 1250 4750 2034 4750 
z
" transform="scale(0.015625)"/>
       </defs>
       <use xlink:href="#DejaVuSans-30"/>
      </g>
     </g>
    </g>
    <g id="xtick_2">
     <g id="line2d_2">
      <g>
       <use xlink:href="#mbaf40a5393" x="124.424398" y="288.912" style="stroke: #000000; stroke-width: 0.8"/>
      </g>
     </g>
     <g id="text_2">
      <!-- 100 -->
      <g transform="translate(114.880648 303.510437) scale(0.1 -0.1)">
       <defs>
        <path id="DejaVuSans-31" d="M 794 531 
L 1825 531 
L 1825 4091 
L 703 3866 
L 703 4441 
L 1819 4666 
L 2450 4666 
L 2450 531 
L 3481 531 
L 3481 0 
L 794 0 
L 794 531 
z
" transform="scale(0.015625)"/>
       </defs>
       <use xlink:href="#DejaVuSans-31"/>
       <use xlink:href="#DejaVuSans-30" x="63.623047"/>
       <use xlink:href="#DejaVuSans-30" x="127.246094"/>
      </g>
     </g>
    </g>
    <g id="xtick_3">
     <g id="line2d_3">
      <g>
       <use xlink:href="#mbaf40a5393" x="189.485429" y="288.912" style="stroke: #000000; stroke-width: 0.8"/>
      </g>
     </g>
     <g id="text_3">
      <!-- 200 -->
      <g transform="translate(179.941679 303.510437) scale(0.1 -0.1)">
       <defs>
        <path id="DejaVuSans-32" d="M 1228 531 
L 3431 531 
L 3431 0 
L 469 0 
L 469 531 
Q 828 903 1448 1529 
Q 2069 2156 2228 2338 
Q 2531 2678 2651 2914 
Q 2772 3150 2772 3378 
Q 2772 3750 2511 3984 
Q 2250 4219 1831 4219 
Q 1534 4219 1204 4116 
Q 875 4013 500 3803 
L 500 4441 
Q 881 4594 1212 4672 
Q 1544 4750 1819 4750 
Q 2544 4750 2975 4387 
Q 3406 4025 3406 3419 
Q 3406 3131 3298 2873 
Q 3191 2616 2906 2266 
Q 2828 2175 2409 1742 
Q 1991 1309 1228 531 
z
" transform="scale(0.015625)"/>
       </defs>
       <use xlink:href="#DejaVuSans-32"/>
       <use xlink:href="#DejaVuSans-30" x="63.623047"/>
       <use xlink:href="#DejaVuSans-30" x="127.246094"/>
      </g>
     </g>
    </g>
    <g id="xtick_4">
     <g id="line2d_4">
      <g>
       <use xlink:href="#mbaf40a5393" x="254.54646" y="288.912" style="stroke: #000000; stroke-width: 0.8"/>
      </g>
     </g>
     <g id="text_4">
      <!-- 300 -->
      <g transform="translate(245.00271 303.510437) scale(0.1 -0.1)">
       <defs>
        <path id="DejaVuSans-33" d="M 2597 2516 
Q 3050 2419 3304 2112 
Q 3559 1806 3559 1356 
Q 3559 666 3084 287 
Q 2609 -91 1734 -91 
Q 1441 -91 1130 -33 
Q 819 25 488 141 
L 488 750 
Q 750 597 1062 519 
Q 1375 441 1716 441 
Q 2309 441 2620 675 
Q 2931 909 2931 1356 
Q 2931 1769 2642 2001 
Q 2353 2234 1838 2234 
L 1294 2234 
L 1294 2753 
L 1863 2753 
Q 2328 2753 2575 2939 
Q 2822 3125 2822 3475 
Q 2822 3834 2567 4026 
Q 2313 4219 1838 4219 
Q 1578 4219 1281 4162 
Q 984 4106 628 3988 
L 628 4550 
Q 988 4650 1302 4700 
Q 1616 4750 1894 4750 
Q 2613 4750 3031 4423 
Q 3450 4097 3450 3541 
Q 3450 3153 3228 2886 
Q 3006 2619 2597 2516 
z
" transform="scale(0.015625)"/>
       </defs>
       <use xlink:href="#DejaVuSans-33"/>
       <use xlink:href="#DejaVuSans-30" x="63.623047"/>
       <use xlink:href="#DejaVuSans-30" x="127.246094"/>
      </g>
     </g>
    </g>
    <g id="xtick_5">
     <g id="line2d_5">
      <g>
       <use xlink:href="#mbaf40a5393" x="319.607492" y="288.912" style="stroke: #000000; stroke-width: 0.8"/>
      </g>
     </g>
     <g id="text_5">
      <!-- 400 -->
      <g transform="translate(310.063742 303.510437) scale(0.1 -0.1)">
       <defs>
        <path id="DejaVuSans-34" d="M 2419 4116 
L 825 1625 
L 2419 1625 
L 2419 4116 
z
M 2253 4666 
L 3047 4666 
L 3047 1625 
L 3713 1625 
L 3713 1100 
L 3047 1100 
L 3047 0 
L 2419 0 
L 2419 1100 
L 313 1100 
L 313 1709 
L 2253 4666 
z
" transform="scale(0.015625)"/>
       </defs>
       <use xlink:href="#DejaVuSans-34"/>
       <use xlink:href="#DejaVuSans-30" x="63.623047"/>
       <use xlink:href="#DejaVuSans-30" x="127.246094"/>
      </g>
     </g>
    </g>
    <g id="xtick_6">
     <g id="line2d_6">
      <g>
       <use xlink:href="#mbaf40a5393" x="384.668523" y="288.912" style="stroke: #000000; stroke-width: 0.8"/>
      </g>
     </g>
     <g id="text_6">
      <!-- 500 -->
      <g transform="translate(375.124773 303.510437) scale(0.1 -0.1)">
       <defs>
        <path id="DejaVuSans-35" d="M 691 4666 
L 3169 4666 
L 3169 4134 
L 1269 4134 
L 1269 2991 
Q 1406 3038 1543 3061 
Q 1681 3084 1819 3084 
Q 2600 3084 3056 2656 
Q 3513 2228 3513 1497 
Q 3513 744 3044 326 
Q 2575 -91 1722 -91 
Q 1428 -91 1123 -41 
Q 819 9 494 109 
L 494 744 
Q 775 591 1075 516 
Q 1375 441 1709 441 
Q 2250 441 2565 725 
Q 2881 1009 2881 1497 
Q 2881 1984 2565 2268 
Q 2250 2553 1709 2553 
Q 1456 2553 1204 2497 
Q 953 2441 691 2322 
L 691 4666 
z
" transform="scale(0.015625)"/>
       </defs>
       <use xlink:href="#DejaVuSans-35"/>
       <use xlink:href="#DejaVuSans-30" x="63.623047"/>
       <use xlink:href="#DejaVuSans-30" x="127.246094"/>
      </g>
     </g>
    </g>
    <g id="text_7">
     <!-- epoch -->
     <g transform="translate(207.113125 317.188562) scale(0.1 -0.1)">
      <defs>
       <path id="DejaVuSans-65" d="M 3597 1894 
L 3597 1613 
L 953 1613 
Q 991 1019 1311 708 
Q 1631 397 2203 397 
Q 2534 397 2845 478 
Q 3156 559 3463 722 
L 3463 178 
Q 3153 47 2828 -22 
Q 2503 -91 2169 -91 
Q 1331 -91 842 396 
Q 353 884 353 1716 
Q 353 2575 817 3079 
Q 1281 3584 2069 3584 
Q 2775 3584 3186 3129 
Q 3597 2675 3597 1894 
z
M 3022 2063 
Q 3016 2534 2758 2815 
Q 2500 3097 2075 3097 
Q 1594 3097 1305 2825 
Q 1016 2553 972 2059 
L 3022 2063 
z
" transform="scale(0.015625)"/>
       <path id="DejaVuSans-70" d="M 1159 525 
L 1159 -1331 
L 581 -1331 
L 581 3500 
L 1159 3500 
L 1159 2969 
Q 1341 3281 1617 3432 
Q 1894 3584 2278 3584 
Q 2916 3584 3314 3078 
Q 3713 2572 3713 1747 
Q 3713 922 3314 415 
Q 2916 -91 2278 -91 
Q 1894 -91 1617 61 
Q 1341 213 1159 525 
z
M 3116 1747 
Q 3116 2381 2855 2742 
Q 2594 3103 2138 3103 
Q 1681 3103 1420 2742 
Q 1159 2381 1159 1747 
Q 1159 1113 1420 752 
Q 1681 391 2138 391 
Q 2594 391 2855 752 
Q 3116 1113 3116 1747 
z
" transform="scale(0.015625)"/>
       <path id="DejaVuSans-6f" d="M 1959 3097 
Q 1497 3097 1228 2736 
Q 959 2375 959 1747 
Q 959 1119 1226 758 
Q 1494 397 1959 397 
Q 2419 397 2687 759 
Q 2956 1122 2956 1747 
Q 2956 2369 2687 2733 
Q 2419 3097 1959 3097 
z
M 1959 3584 
Q 2709 3584 3137 3096 
Q 3566 2609 3566 1747 
Q 3566 888 3137 398 
Q 2709 -91 1959 -91 
Q 1206 -91 779 398 
Q 353 888 353 1747 
Q 353 2609 779 3096 
Q 1206 3584 1959 3584 
z
" transform="scale(0.015625)"/>
       <path id="DejaVuSans-63" d="M 3122 3366 
L 3122 2828 
Q 2878 2963 2633 3030 
Q 2388 3097 2138 3097 
Q 1578 3097 1268 2742 
Q 959 2388 959 1747 
Q 959 1106 1268 751 
Q 1578 397 2138 397 
Q 2388 397 2633 464 
Q 2878 531 3122 666 
L 3122 134 
Q 2881 22 2623 -34 
Q 2366 -91 2075 -91 
Q 1284 -91 818 406 
Q 353 903 353 1747 
Q 353 2603 823 3093 
Q 1294 3584 2113 3584 
Q 2378 3584 2631 3529 
Q 2884 3475 3122 3366 
z
" transform="scale(0.015625)"/>
       <path id="DejaVuSans-68" d="M 3513 2113 
L 3513 0 
L 2938 0 
L 2938 2094 
Q 2938 2591 2744 2837 
Q 2550 3084 2163 3084 
Q 1697 3084 1428 2787 
Q 1159 2491 1159 1978 
L 1159 0 
L 581 0 
L 581 4863 
L 1159 4863 
L 1159 2956 
Q 1366 3272 1645 3428 
Q 1925 3584 2291 3584 
Q 2894 3584 3203 3211 
Q 3513 2838 3513 2113 
z
" transform="scale(0.015625)"/>
      </defs>
      <use xlink:href="#DejaVuSans-65"/>
      <use xlink:href="#DejaVuSans-70" x="61.523438"/>
      <use xlink:href="#DejaVuSans-6f" x="125"/>
      <use xlink:href="#DejaVuSans-63" x="186.181641"/>
      <use xlink:href="#DejaVuSans-68" x="241.162109"/>
     </g>
    </g>
   </g>
   <g id="matplotlib.axis_2">
    <g id="ytick_1">
     <g id="line2d_7">
      <defs>
       <path id="m3d842f8df8" d="M 0 0 
L -3.5 0 
" style="stroke: #000000; stroke-width: 0.8"/>
      </defs>
      <g>
       <use xlink:href="#m3d842f8df8" x="43.78125" y="283.332462" style="stroke: #000000; stroke-width: 0.8"/>
      </g>
     </g>
     <g id="text_8">
      <!-- 0.6 -->
      <g transform="translate(20.878125 287.131681) scale(0.1 -0.1)">
       <defs>
        <path id="DejaVuSans-2e" d="M 684 794 
L 1344 794 
L 1344 0 
L 684 0 
L 684 794 
z
" transform="scale(0.015625)"/>
        <path id="DejaVuSans-36" d="M 2113 2584 
Q 1688 2584 1439 2293 
Q 1191 2003 1191 1497 
Q 1191 994 1439 701 
Q 1688 409 2113 409 
Q 2538 409 2786 701 
Q 3034 994 3034 1497 
Q 3034 2003 2786 2293 
Q 2538 2584 2113 2584 
z
M 3366 4563 
L 3366 3988 
Q 3128 4100 2886 4159 
Q 2644 4219 2406 4219 
Q 1781 4219 1451 3797 
Q 1122 3375 1075 2522 
Q 1259 2794 1537 2939 
Q 1816 3084 2150 3084 
Q 2853 3084 3261 2657 
Q 3669 2231 3669 1497 
Q 3669 778 3244 343 
Q 2819 -91 2113 -91 
Q 1303 -91 875 529 
Q 447 1150 447 2328 
Q 447 3434 972 4092 
Q 1497 4750 2381 4750 
Q 2619 4750 2861 4703 
Q 3103 4656 3366 4563 
z
" transform="scale(0.015625)"/>
       </defs>
       <use xlink:href="#DejaVuSans-30"/>
       <use xlink:href="#DejaVuSans-2e" x="63.623047"/>
       <use xlink:href="#DejaVuSans-36" x="95.410156"/>
      </g>
     </g>
    </g>
    <g id="ytick_2">
     <g id="line2d_8">
      <g>
       <use xlink:href="#m3d842f8df8" x="43.78125" y="252.009987" style="stroke: #000000; stroke-width: 0.8"/>
      </g>
     </g>
     <g id="text_9">
      <!-- 0.7 -->
      <g transform="translate(20.878125 255.809206) scale(0.1 -0.1)">
       <defs>
        <path id="DejaVuSans-37" d="M 525 4666 
L 3525 4666 
L 3525 4397 
L 1831 0 
L 1172 0 
L 2766 4134 
L 525 4134 
L 525 4666 
z
" transform="scale(0.015625)"/>
       </defs>
       <use xlink:href="#DejaVuSans-30"/>
       <use xlink:href="#DejaVuSans-2e" x="63.623047"/>
       <use xlink:href="#DejaVuSans-37" x="95.410156"/>
      </g>
     </g>
    </g>
    <g id="ytick_3">
     <g id="line2d_9">
      <g>
       <use xlink:href="#m3d842f8df8" x="43.78125" y="220.687512" style="stroke: #000000; stroke-width: 0.8"/>
      </g>
     </g>
     <g id="text_10">
      <!-- 0.8 -->
      <g transform="translate(20.878125 224.486731) scale(0.1 -0.1)">
       <defs>
        <path id="DejaVuSans-38" d="M 2034 2216 
Q 1584 2216 1326 1975 
Q 1069 1734 1069 1313 
Q 1069 891 1326 650 
Q 1584 409 2034 409 
Q 2484 409 2743 651 
Q 3003 894 3003 1313 
Q 3003 1734 2745 1975 
Q 2488 2216 2034 2216 
z
M 1403 2484 
Q 997 2584 770 2862 
Q 544 3141 544 3541 
Q 544 4100 942 4425 
Q 1341 4750 2034 4750 
Q 2731 4750 3128 4425 
Q 3525 4100 3525 3541 
Q 3525 3141 3298 2862 
Q 3072 2584 2669 2484 
Q 3125 2378 3379 2068 
Q 3634 1759 3634 1313 
Q 3634 634 3220 271 
Q 2806 -91 2034 -91 
Q 1263 -91 848 271 
Q 434 634 434 1313 
Q 434 1759 690 2068 
Q 947 2378 1403 2484 
z
M 1172 3481 
Q 1172 3119 1398 2916 
Q 1625 2713 2034 2713 
Q 2441 2713 2670 2916 
Q 2900 3119 2900 3481 
Q 2900 3844 2670 4047 
Q 2441 4250 2034 4250 
Q 1625 4250 1398 4047 
Q 1172 3844 1172 3481 
z
" transform="scale(0.015625)"/>
       </defs>
       <use xlink:href="#DejaVuSans-30"/>
       <use xlink:href="#DejaVuSans-2e" x="63.623047"/>
       <use xlink:href="#DejaVuSans-38" x="95.410156"/>
      </g>
     </g>
    </g>
    <g id="ytick_4">
     <g id="line2d_10">
      <g>
       <use xlink:href="#m3d842f8df8" x="43.78125" y="189.365037" style="stroke: #000000; stroke-width: 0.8"/>
      </g>
     </g>
     <g id="text_11">
      <!-- 0.9 -->
      <g transform="translate(20.878125 193.164255) scale(0.1 -0.1)">
       <defs>
        <path id="DejaVuSans-39" d="M 703 97 
L 703 672 
Q 941 559 1184 500 
Q 1428 441 1663 441 
Q 2288 441 2617 861 
Q 2947 1281 2994 2138 
Q 2813 1869 2534 1725 
Q 2256 1581 1919 1581 
Q 1219 1581 811 2004 
Q 403 2428 403 3163 
Q 403 3881 828 4315 
Q 1253 4750 1959 4750 
Q 2769 4750 3195 4129 
Q 3622 3509 3622 2328 
Q 3622 1225 3098 567 
Q 2575 -91 1691 -91 
Q 1453 -91 1209 -44 
Q 966 3 703 97 
z
M 1959 2075 
Q 2384 2075 2632 2365 
Q 2881 2656 2881 3163 
Q 2881 3666 2632 3958 
Q 2384 4250 1959 4250 
Q 1534 4250 1286 3958 
Q 1038 3666 1038 3163 
Q 1038 2656 1286 2365 
Q 1534 2075 1959 2075 
z
" transform="scale(0.015625)"/>
       </defs>
       <use xlink:href="#DejaVuSans-30"/>
       <use xlink:href="#DejaVuSans-2e" x="63.623047"/>
       <use xlink:href="#DejaVuSans-39" x="95.410156"/>
      </g>
     </g>
    </g>
    <g id="ytick_5">
     <g id="line2d_11">
      <g>
       <use xlink:href="#m3d842f8df8" x="43.78125" y="158.042561" style="stroke: #000000; stroke-width: 0.8"/>
      </g>
     </g>
     <g id="text_12">
      <!-- 1.0 -->
      <g transform="translate(20.878125 161.84178) scale(0.1 -0.1)">
       <use xlink:href="#DejaVuSans-31"/>
       <use xlink:href="#DejaVuSans-2e" x="63.623047"/>
       <use xlink:href="#DejaVuSans-30" x="95.410156"/>
      </g>
     </g>
    </g>
    <g id="ytick_6">
     <g id="line2d_12">
      <g>
       <use xlink:href="#m3d842f8df8" x="43.78125" y="126.720086" style="stroke: #000000; stroke-width: 0.8"/>
      </g>
     </g>
     <g id="text_13">
      <!-- 1.1 -->
      <g transform="translate(20.878125 130.519305) scale(0.1 -0.1)">
       <use xlink:href="#DejaVuSans-31"/>
       <use xlink:href="#DejaVuSans-2e" x="63.623047"/>
       <use xlink:href="#DejaVuSans-31" x="95.410156"/>
      </g>
     </g>
    </g>
    <g id="ytick_7">
     <g id="line2d_13">
      <g>
       <use xlink:href="#m3d842f8df8" x="43.78125" y="95.397611" style="stroke: #000000; stroke-width: 0.8"/>
      </g>
     </g>
     <g id="text_14">
      <!-- 1.2 -->
      <g transform="translate(20.878125 99.19683) scale(0.1 -0.1)">
       <use xlink:href="#DejaVuSans-31"/>
       <use xlink:href="#DejaVuSans-2e" x="63.623047"/>
       <use xlink:href="#DejaVuSans-32" x="95.410156"/>
      </g>
     </g>
    </g>
    <g id="ytick_8">
     <g id="line2d_14">
      <g>
       <use xlink:href="#m3d842f8df8" x="43.78125" y="64.075136" style="stroke: #000000; stroke-width: 0.8"/>
      </g>
     </g>
     <g id="text_15">
      <!-- 1.3 -->
      <g transform="translate(20.878125 67.874355) scale(0.1 -0.1)">
       <use xlink:href="#DejaVuSans-31"/>
       <use xlink:href="#DejaVuSans-2e" x="63.623047"/>
       <use xlink:href="#DejaVuSans-33" x="95.410156"/>
      </g>
     </g>
    </g>
    <g id="ytick_9">
     <g id="line2d_15">
      <g>
       <use xlink:href="#m3d842f8df8" x="43.78125" y="32.752661" style="stroke: #000000; stroke-width: 0.8"/>
      </g>
     </g>
     <g id="text_16">
      <!-- 1.4 -->
      <g transform="translate(20.878125 36.551879) scale(0.1 -0.1)">
       <use xlink:href="#DejaVuSans-31"/>
       <use xlink:href="#DejaVuSans-2e" x="63.623047"/>
       <use xlink:href="#DejaVuSans-34" x="95.410156"/>
      </g>
     </g>
    </g>
    <g id="text_17">
     <!-- loss -->
     <g transform="translate(14.798438 165.513812) rotate(-90) scale(0.1 -0.1)">
      <defs>
       <path id="DejaVuSans-6c" d="M 603 4863 
L 1178 4863 
L 1178 0 
L 603 0 
L 603 4863 
z
" transform="scale(0.015625)"/>
       <path id="DejaVuSans-73" d="M 2834 3397 
L 2834 2853 
Q 2591 2978 2328 3040 
Q 2066 3103 1784 3103 
Q 1356 3103 1142 2972 
Q 928 2841 928 2578 
Q 928 2378 1081 2264 
Q 1234 2150 1697 2047 
L 1894 2003 
Q 2506 1872 2764 1633 
Q 3022 1394 3022 966 
Q 3022 478 2636 193 
Q 2250 -91 1575 -91 
Q 1294 -91 989 -36 
Q 684 19 347 128 
L 347 722 
Q 666 556 975 473 
Q 1284 391 1588 391 
Q 1994 391 2212 530 
Q 2431 669 2431 922 
Q 2431 1156 2273 1281 
Q 2116 1406 1581 1522 
L 1381 1569 
Q 847 1681 609 1914 
Q 372 2147 372 2553 
Q 372 3047 722 3315 
Q 1072 3584 1716 3584 
Q 2034 3584 2315 3537 
Q 2597 3491 2834 3397 
z
" transform="scale(0.015625)"/>
      </defs>
      <use xlink:href="#DejaVuSans-6c"/>
      <use xlink:href="#DejaVuSans-6f" x="27.783203"/>
      <use xlink:href="#DejaVuSans-73" x="88.964844"/>
      <use xlink:href="#DejaVuSans-73" x="141.064453"/>
     </g>
    </g>
   </g>
   <g id="line2d_16">
    <path d="M 60.013977 37.566021 
L 60.664588 43.665452 
L 61.315198 34.896 
L 61.965808 49.096827 
L 62.616419 43.256437 
L 63.267029 40.952808 
L 64.568249 54.556094 
L 65.86947 56.139299 
L 66.52008 52.485256 
L 67.821301 203.162653 
L 68.471911 163.579578 
L 69.122522 143.986387 
L 69.773132 94.174659 
L 70.423742 79.418691 
L 71.074353 88.457154 
L 71.724963 75.306066 
L 72.375573 69.691392 
L 73.026184 90.098459 
L 73.676794 74.161019 
L 74.327404 92.865861 
L 74.978014 77.720201 
L 75.628625 74.909933 
L 76.279235 78.867637 
L 77.580456 93.894876 
L 78.231066 85.676104 
L 78.881676 94.211999 
L 79.532287 88.633563 
L 80.182897 89.025738 
L 80.833507 80.347114 
L 82.134728 94.861871 
L 82.785338 86.327619 
L 83.435948 92.329762 
L 84.086559 84.723653 
L 84.737169 87.544469 
L 85.387779 92.988072 
L 86.03839 91.596007 
L 86.689 90.846159 
L 87.33961 84.563038 
L 87.990221 88.237449 
L 88.640831 89.425268 
L 89.291441 85.684935 
L 89.942052 86.320412 
L 90.592662 87.210096 
L 91.243272 88.568873 
L 91.893883 90.900656 
L 92.544493 95.225499 
L 93.195103 94.548818 
L 93.845713 91.603102 
L 94.496324 95.78641 
L 95.146934 90.739406 
L 95.797544 93.486477 
L 96.448155 95.225462 
L 97.098765 88.696872 
L 98.399986 89.444069 
L 99.050596 89.967174 
L 99.701206 90.716592 
L 100.351817 91.861079 
L 101.002427 93.785845 
L 101.653037 94.034376 
L 102.303648 95.270997 
L 102.954258 93.071451 
L 103.604868 95.356131 
L 104.255478 90.922537 
L 104.906089 96.976059 
L 105.556699 90.377421 
L 106.207309 89.887828 
L 106.85792 88.716064 
L 107.50853 90.434158 
L 108.15914 89.436022 
L 108.809751 93.977489 
L 109.460361 95.310054 
L 110.110971 97.217906 
L 110.761582 96.43449 
L 111.412192 96.628841 
L 112.062802 96.22707 
L 112.713413 95.27376 
L 113.364023 93.438776 
L 114.014633 92.154435 
L 114.665243 92.37287 
L 115.315854 91.3508 
L 116.617074 91.81672 
L 117.267685 93.591345 
L 117.918295 91.74206 
L 118.568905 93.647354 
L 119.219516 92.513621 
L 119.870126 93.69526 
L 120.520736 92.575529 
L 121.171347 94.5384 
L 121.821957 92.111906 
L 122.472567 93.163175 
L 123.123177 92.460151 
L 123.773788 93.035997 
L 124.424398 93.126377 
L 125.075008 93.793612 
L 126.376229 93.877476 
L 127.026839 95.087661 
L 127.67745 95.957126 
L 128.32806 94.948348 
L 128.97867 94.484557 
L 129.629281 94.761913 
L 130.279891 95.614948 
L 130.930501 95.150186 
L 131.581112 95.405157 
L 132.231722 96.019725 
L 132.882332 96.39239 
L 134.183553 96.392483 
L 137.436604 97.725795 
L 139.388435 98.745512 
L 140.039046 98.879 
L 144.593318 101.048302 
L 146.545149 101.975343 
L 150.448811 103.327343 
L 152.400642 103.871601 
L 153.701862 104.229909 
L 154.352472 104.489753 
L 155.653693 104.810162 
L 166.714068 108.312812 
L 173.220171 110.795465 
L 175.822613 112.146811 
L 176.473223 112.351113 
L 177.774444 113.137759 
L 181.678106 115.339135 
L 184.931157 117.423807 
L 188.184209 119.754022 
L 191.43726 122.378638 
L 194.690312 125.317708 
L 197.292753 127.934203 
L 199.895194 130.796989 
L 200.545805 131.562295 
L 201.196415 132.645098 
L 201.847025 137.169725 
L 203.148246 144.436625 
L 204.449466 149.89507 
L 205.100077 155.182576 
L 205.750687 157.020921 
L 206.401297 159.505543 
L 208.353128 168.816266 
L 210.304959 174.987677 
L 210.95557 178.77054 
L 211.60618 181.579203 
L 212.9074 188.466959 
L 213.558011 190.079457 
L 214.208621 193.259972 
L 214.859231 194.91217 
L 217.461673 204.238239 
L 218.112283 208.386244 
L 218.762893 210.984592 
L 219.413504 212.629939 
L 220.064114 215.562054 
L 220.714724 216.943879 
L 221.365335 220.498086 
L 222.015945 222.190387 
L 222.666555 225.13727 
L 223.317165 228.76272 
L 224.618386 233.906628 
L 225.268996 233.463215 
L 225.919607 231.742452 
L 228.522048 226.324706 
L 229.172658 224.473984 
L 229.823269 224.882672 
L 230.473879 224.461522 
L 231.124489 225.543969 
L 231.7751 227.068496 
L 233.07632 229.373124 
L 233.72693 232.329696 
L 235.028151 235.308598 
L 235.678761 236.637858 
L 236.329372 239.752525 
L 236.979982 240.806371 
L 237.630592 241.078808 
L 238.281203 239.744096 
L 238.931813 239.868725 
L 239.582423 240.457323 
L 240.233034 240.318094 
L 240.883644 241.64953 
L 241.534254 241.004381 
L 242.184865 240.777676 
L 242.835475 241.617399 
L 243.486085 243.210621 
L 244.136695 241.703392 
L 244.787306 243.788848 
L 245.437916 244.080626 
L 246.088526 243.288753 
L 246.739137 243.889645 
L 247.389747 246.403812 
L 248.040357 247.784787 
L 248.690968 248.464335 
L 249.341578 249.581937 
L 249.992188 250.338628 
L 250.642799 250.492568 
L 251.293409 251.333188 
L 251.944019 250.877695 
L 252.594629 251.680313 
L 253.24524 250.891735 
L 253.89585 252.026019 
L 254.54646 251.420254 
L 255.847681 252.673977 
L 256.498291 252.818545 
L 257.148902 254.140898 
L 258.450122 256.104273 
L 259.100733 256.399253 
L 260.401953 257.517509 
L 261.052564 257.090068 
L 261.703174 258.251871 
L 262.353784 259.12281 
L 263.004394 257.444735 
L 263.655005 257.65461 
L 264.305615 258.149206 
L 264.956225 259.294309 
L 265.606836 259.475144 
L 266.257446 260.261341 
L 266.908056 260.150406 
L 268.209277 261.126045 
L 269.510498 262.682907 
L 270.161108 262.762178 
L 270.811718 262.256259 
L 271.462329 262.230635 
L 272.112939 262.583808 
L 272.763549 263.536465 
L 274.06477 263.577248 
L 274.71538 263.998454 
L 276.016601 264.603883 
L 276.667211 265.032622 
L 277.317821 263.92442 
L 277.968432 263.649155 
L 278.619042 262.675532 
L 279.269652 263.056972 
L 279.920263 262.706636 
L 280.570873 263.002643 
L 281.221483 262.941267 
L 282.522704 263.520437 
L 283.173314 263.180098 
L 283.823924 263.490771 
L 284.474535 263.672697 
L 285.125145 263.668254 
L 285.775755 263.995299 
L 286.426366 263.790372 
L 287.076976 264.204866 
L 288.378197 264.064937 
L 289.679417 264.541424 
L 290.980638 264.308884 
L 291.631248 264.155055 
L 292.281858 264.451651 
L 292.932469 263.956214 
L 293.583079 264.540248 
L 294.233689 265.345012 
L 294.8843 265.588707 
L 295.53491 265.065322 
L 296.18552 264.877478 
L 296.836131 265.631041 
L 297.486741 266.051276 
L 298.137351 266.334877 
L 298.787962 266.206533 
L 299.438572 266.290789 
L 300.739793 266.249389 
L 301.390403 265.810727 
L 302.041013 266.183653 
L 302.691623 266.260861 
L 303.342234 266.568014 
L 304.643454 266.76469 
L 305.294065 267.133397 
L 305.944675 267.224047 
L 306.595285 267.607774 
L 307.245896 266.942957 
L 307.896506 267.217326 
L 309.197727 267.419388 
L 309.848337 267.836888 
L 311.149558 267.70353 
L 312.450778 268.300614 
L 313.101388 268.355045 
L 314.402609 268.807934 
L 315.053219 269.34898 
L 315.70383 268.628089 
L 316.35444 268.890575 
L 317.00505 268.658334 
L 317.655661 268.918635 
L 318.306271 269.986063 
L 318.956881 269.391771 
L 319.607492 269.707596 
L 320.258102 269.695349 
L 322.209933 270.493168 
L 322.860543 270.520781 
L 323.511153 271.919072 
L 324.161764 271.70018 
L 324.812374 270.107472 
L 325.462984 269.923613 
L 326.113595 270.625909 
L 327.414815 270.626806 
L 328.716036 271.107045 
L 329.366646 271.261555 
L 330.017257 270.684037 
L 330.667867 270.585844 
L 331.318477 270.652028 
L 331.969087 270.534092 
L 333.270308 270.757241 
L 333.920918 270.933884 
L 334.571529 271.257746 
L 335.222139 271.214638 
L 335.872749 272.121591 
L 336.52336 272.297833 
L 337.17397 272.347979 
L 337.82458 272.823766 
L 338.475191 272.735365 
L 339.125801 272.962005 
L 341.077632 274.706946 
L 341.728242 273.926134 
L 342.378852 273.77645 
L 343.029463 273.976766 
L 343.680073 273.679032 
L 344.981294 274.070796 
L 346.282514 273.678416 
L 346.933125 273.813099 
L 347.583735 273.543285 
L 348.234345 273.575154 
L 349.535566 274.024962 
L 350.186176 274.031244 
L 350.836787 273.797491 
L 351.487397 273.86192 
L 352.138007 273.736637 
L 352.788617 273.824982 
L 353.439228 274.063412 
L 354.740448 274.325067 
L 355.391059 273.86388 
L 356.041669 270.516505 
L 356.692279 273.108618 
L 357.34289 265.832327 
L 357.9935 270.909072 
L 359.294721 274.605915 
L 359.945331 274.128952 
L 360.595941 275.60925 
L 361.246552 275.612013 
L 361.897162 274.280568 
L 362.547772 273.497656 
L 363.198382 273.707737 
L 363.848993 273.415669 
L 365.800824 273.75527 
L 366.451434 273.778868 
L 367.752655 274.06513 
L 369.704486 274.219565 
L 370.355096 273.967198 
L 371.005706 274.033121 
L 371.656316 274.346883 
L 373.608147 274.781045 
L 374.258758 274.73608 
L 374.909368 275.070938 
L 375.559978 275.139857 
L 376.210589 276.140261 
L 376.861199 275.865285 
L 378.16242 276.017126 
L 378.81303 275.671438 
L 379.46364 275.143134 
L 381.415471 275.465354 
L 382.066081 275.718085 
L 382.716692 275.644199 
L 383.367302 276.366341 
L 384.017912 276.387924 
L 384.668523 276.816 
L 384.668523 276.816 
" clip-path="url(#p61f1bbc1a5)" style="fill: none; stroke: #440154; stroke-width: 1.5; stroke-linecap: square"/>
   </g>
   <g id="patch_3">
    <path d="M 43.78125 288.912 
L 43.78125 22.8 
" style="fill: none; stroke: #000000; stroke-width: 0.8; stroke-linejoin: miter; stroke-linecap: square"/>
   </g>
   <g id="patch_4">
    <path d="M 400.90125 288.912 
L 400.90125 22.8 
" style="fill: none; stroke: #000000; stroke-width: 0.8; stroke-linejoin: miter; stroke-linecap: square"/>
   </g>
   <g id="patch_5">
    <path d="M 43.78125 288.912 
L 400.90125 288.912 
" style="fill: none; stroke: #000000; stroke-width: 0.8; stroke-linejoin: miter; stroke-linecap: square"/>
   </g>
   <g id="patch_6">
    <path d="M 43.78125 22.8 
L 400.90125 22.8 
" style="fill: none; stroke: #000000; stroke-width: 0.8; stroke-linejoin: miter; stroke-linecap: square"/>
   </g>
   <g id="text_18">
    <!-- Training Performance $\mathcal{N}_C$ -->
    <g transform="translate(146.44125 16.8) scale(0.12 -0.12)">
     <defs>
      <path id="DejaVuSans-54" d="M -19 4666 
L 3928 4666 
L 3928 4134 
L 2272 4134 
L 2272 0 
L 1638 0 
L 1638 4134 
L -19 4134 
L -19 4666 
z
" transform="scale(0.015625)"/>
      <path id="DejaVuSans-72" d="M 2631 2963 
Q 2534 3019 2420 3045 
Q 2306 3072 2169 3072 
Q 1681 3072 1420 2755 
Q 1159 2438 1159 1844 
L 1159 0 
L 581 0 
L 581 3500 
L 1159 3500 
L 1159 2956 
Q 1341 3275 1631 3429 
Q 1922 3584 2338 3584 
Q 2397 3584 2469 3576 
Q 2541 3569 2628 3553 
L 2631 2963 
z
" transform="scale(0.015625)"/>
      <path id="DejaVuSans-61" d="M 2194 1759 
Q 1497 1759 1228 1600 
Q 959 1441 959 1056 
Q 959 750 1161 570 
Q 1363 391 1709 391 
Q 2188 391 2477 730 
Q 2766 1069 2766 1631 
L 2766 1759 
L 2194 1759 
z
M 3341 1997 
L 3341 0 
L 2766 0 
L 2766 531 
Q 2569 213 2275 61 
Q 1981 -91 1556 -91 
Q 1019 -91 701 211 
Q 384 513 384 1019 
Q 384 1609 779 1909 
Q 1175 2209 1959 2209 
L 2766 2209 
L 2766 2266 
Q 2766 2663 2505 2880 
Q 2244 3097 1772 3097 
Q 1472 3097 1187 3025 
Q 903 2953 641 2809 
L 641 3341 
Q 956 3463 1253 3523 
Q 1550 3584 1831 3584 
Q 2591 3584 2966 3190 
Q 3341 2797 3341 1997 
z
" transform="scale(0.015625)"/>
      <path id="DejaVuSans-69" d="M 603 3500 
L 1178 3500 
L 1178 0 
L 603 0 
L 603 3500 
z
M 603 4863 
L 1178 4863 
L 1178 4134 
L 603 4134 
L 603 4863 
z
" transform="scale(0.015625)"/>
      <path id="DejaVuSans-6e" d="M 3513 2113 
L 3513 0 
L 2938 0 
L 2938 2094 
Q 2938 2591 2744 2837 
Q 2550 3084 2163 3084 
Q 1697 3084 1428 2787 
Q 1159 2491 1159 1978 
L 1159 0 
L 581 0 
L 581 3500 
L 1159 3500 
L 1159 2956 
Q 1366 3272 1645 3428 
Q 1925 3584 2291 3584 
Q 2894 3584 3203 3211 
Q 3513 2838 3513 2113 
z
" transform="scale(0.015625)"/>
      <path id="DejaVuSans-67" d="M 2906 1791 
Q 2906 2416 2648 2759 
Q 2391 3103 1925 3103 
Q 1463 3103 1205 2759 
Q 947 2416 947 1791 
Q 947 1169 1205 825 
Q 1463 481 1925 481 
Q 2391 481 2648 825 
Q 2906 1169 2906 1791 
z
M 3481 434 
Q 3481 -459 3084 -895 
Q 2688 -1331 1869 -1331 
Q 1566 -1331 1297 -1286 
Q 1028 -1241 775 -1147 
L 775 -588 
Q 1028 -725 1275 -790 
Q 1522 -856 1778 -856 
Q 2344 -856 2625 -561 
Q 2906 -266 2906 331 
L 2906 616 
Q 2728 306 2450 153 
Q 2172 0 1784 0 
Q 1141 0 747 490 
Q 353 981 353 1791 
Q 353 2603 747 3093 
Q 1141 3584 1784 3584 
Q 2172 3584 2450 3431 
Q 2728 3278 2906 2969 
L 2906 3500 
L 3481 3500 
L 3481 434 
z
" transform="scale(0.015625)"/>
      <path id="DejaVuSans-20" transform="scale(0.015625)"/>
      <path id="DejaVuSans-50" d="M 1259 4147 
L 1259 2394 
L 2053 2394 
Q 2494 2394 2734 2622 
Q 2975 2850 2975 3272 
Q 2975 3691 2734 3919 
Q 2494 4147 2053 4147 
L 1259 4147 
z
M 628 4666 
L 2053 4666 
Q 2838 4666 3239 4311 
Q 3641 3956 3641 3272 
Q 3641 2581 3239 2228 
Q 2838 1875 2053 1875 
L 1259 1875 
L 1259 0 
L 628 0 
L 628 4666 
z
" transform="scale(0.015625)"/>
      <path id="DejaVuSans-66" d="M 2375 4863 
L 2375 4384 
L 1825 4384 
Q 1516 4384 1395 4259 
Q 1275 4134 1275 3809 
L 1275 3500 
L 2222 3500 
L 2222 3053 
L 1275 3053 
L 1275 0 
L 697 0 
L 697 3053 
L 147 3053 
L 147 3500 
L 697 3500 
L 697 3744 
Q 697 4328 969 4595 
Q 1241 4863 1831 4863 
L 2375 4863 
z
" transform="scale(0.015625)"/>
      <path id="DejaVuSans-6d" d="M 3328 2828 
Q 3544 3216 3844 3400 
Q 4144 3584 4550 3584 
Q 5097 3584 5394 3201 
Q 5691 2819 5691 2113 
L 5691 0 
L 5113 0 
L 5113 2094 
Q 5113 2597 4934 2840 
Q 4756 3084 4391 3084 
Q 3944 3084 3684 2787 
Q 3425 2491 3425 1978 
L 3425 0 
L 2847 0 
L 2847 2094 
Q 2847 2600 2669 2842 
Q 2491 3084 2119 3084 
Q 1678 3084 1418 2786 
Q 1159 2488 1159 1978 
L 1159 0 
L 581 0 
L 581 3500 
L 1159 3500 
L 1159 2956 
Q 1356 3278 1631 3431 
Q 1906 3584 2284 3584 
Q 2666 3584 2933 3390 
Q 3200 3197 3328 2828 
z
" transform="scale(0.015625)"/>
      <path id="STIXNonUnicode-Italic-e23a" d="M 4294 800 
L 4301 800 
Q 5293 4070 5408 4378 
Q 5472 4538 5523 4614 
Q 5830 5088 6253 5088 
Q 6490 5088 6650 4931 
Q 6810 4774 6810 4550 
Q 6810 4378 6720 4272 
Q 6630 4166 6470 4166 
Q 6368 4166 6297 4224 
Q 6227 4282 6198 4349 
Q 6170 4416 6118 4473 
Q 6067 4531 6003 4531 
Q 5939 4531 5881 4508 
Q 5824 4486 5785 4457 
Q 5747 4429 5705 4371 
Q 5664 4314 5638 4275 
Q 5613 4237 5584 4163 
Q 5555 4090 5545 4058 
Q 5536 4026 5510 3952 
Q 5485 3878 5485 3866 
L 4262 -154 
L 4134 -154 
Q 3078 1280 2483 2893 
L 2470 2893 
Q 2406 2579 2358 2361 
Q 2310 2144 2214 1792 
Q 2118 1440 2028 1190 
Q 1939 941 1804 653 
Q 1670 365 1529 185 
Q 1389 6 1203 -115 
Q 1018 -237 813 -237 
Q 576 -237 416 -80 
Q 256 77 256 301 
Q 256 474 345 579 
Q 435 685 595 685 
Q 698 685 768 627 
Q 838 570 867 502 
Q 896 435 947 377 
Q 998 320 1062 320 
Q 1222 320 1369 480 
Q 1517 640 1638 928 
Q 1760 1216 1862 1542 
Q 1965 1869 2057 2288 
Q 2150 2707 2214 3033 
Q 2278 3360 2348 3741 
Q 2419 4122 2458 4294 
L 2630 4294 
Q 2682 4166 2874 3680 
Q 3066 3194 3142 3008 
Q 3219 2822 3392 2422 
Q 3565 2022 3683 1798 
Q 3802 1574 3968 1292 
Q 4134 1011 4294 800 
z
" transform="scale(0.015625)"/>
      <path id="DejaVuSerif-Italic-43" d="M 4300 1234 
Q 3966 581 3414 245 
Q 2863 -91 2119 -91 
Q 1663 -91 1303 65 
Q 944 222 700 525 
Q 419 875 334 1320 
Q 250 1766 359 2328 
Q 572 3416 1330 4083 
Q 2088 4750 3116 4750 
Q 3497 4750 3908 4650 
Q 4319 4550 4775 4347 
L 4569 3272 
L 4216 3272 
Q 4213 3859 3919 4137 
Q 3625 4416 2997 4416 
Q 2250 4416 1762 3886 
Q 1275 3356 1075 2328 
Q 875 1303 1156 773 
Q 1438 244 2184 244 
Q 2706 244 3092 492 
Q 3478 741 3725 1234 
L 4300 1234 
z
" transform="scale(0.015625)"/>
     </defs>
     <use xlink:href="#DejaVuSans-54" transform="translate(0 0.5)"/>
     <use xlink:href="#DejaVuSans-72" transform="translate(61.083984 0.5)"/>
     <use xlink:href="#DejaVuSans-61" transform="translate(102.197266 0.5)"/>
     <use xlink:href="#DejaVuSans-69" transform="translate(163.476562 0.5)"/>
     <use xlink:href="#DejaVuSans-6e" transform="translate(191.259766 0.5)"/>
     <use xlink:href="#DejaVuSans-69" transform="translate(254.638672 0.5)"/>
     <use xlink:href="#DejaVuSans-6e" transform="translate(282.421875 0.5)"/>
     <use xlink:href="#DejaVuSans-67" transform="translate(345.800781 0.5)"/>
     <use xlink:href="#DejaVuSans-20" transform="translate(409.277344 0.5)"/>
     <use xlink:href="#DejaVuSans-50" transform="translate(441.064453 0.5)"/>
     <use xlink:href="#DejaVuSans-65" transform="translate(501.367188 0.5)"/>
     <use xlink:href="#DejaVuSans-72" transform="translate(562.890625 0.5)"/>
     <use xlink:href="#DejaVuSans-66" transform="translate(604.003906 0.5)"/>
     <use xlink:href="#DejaVuSans-6f" transform="translate(639.208984 0.5)"/>
     <use xlink:href="#DejaVuSans-72" transform="translate(700.390625 0.5)"/>
     <use xlink:href="#DejaVuSans-6d" transform="translate(741.503906 0.5)"/>
     <use xlink:href="#DejaVuSans-61" transform="translate(838.916016 0.5)"/>
     <use xlink:href="#DejaVuSans-6e" transform="translate(900.195312 0.5)"/>
     <use xlink:href="#DejaVuSans-63" transform="translate(963.574219 0.5)"/>
     <use xlink:href="#DejaVuSans-65" transform="translate(1018.554688 0.5)"/>
     <use xlink:href="#DejaVuSans-20" transform="translate(1080.078125 0.5)"/>
     <use xlink:href="#STIXNonUnicode-Italic-e23a" transform="translate(1111.865234 0.5)"/>
     <use xlink:href="#DejaVuSerif-Italic-43" transform="translate(1208.473575 -15.071875) scale(0.7)"/>
    </g>
   </g>
  </g>
  <g id="axes_2">
   <g id="matplotlib.axis_3">
    <g id="ytick_10">
     <g id="line2d_17">
      <path d="M 43.78125 277.428456 
L 400.90125 277.428456 
" clip-path="url(#p61f1bbc1a5)" style="fill: none; stroke: #b0b0b0; stroke-width: 0.8; stroke-linecap: square"/>
     </g>
     <g id="line2d_18">
      <defs>
       <path id="m203375aa60" d="M 0 0 
L 3.5 0 
" style="stroke: #000000; stroke-width: 0.8"/>
      </defs>
      <g>
       <use xlink:href="#m203375aa60" x="400.90125" y="277.428456" style="stroke: #000000; stroke-width: 0.8"/>
      </g>
     </g>
     <g id="text_19">
      <!-- 0.50 -->
      <g transform="translate(407.90125 281.227674) scale(0.1 -0.1)">
       <use xlink:href="#DejaVuSans-30"/>
       <use xlink:href="#DejaVuSans-2e" x="63.623047"/>
       <use xlink:href="#DejaVuSans-35" x="95.410156"/>
       <use xlink:href="#DejaVuSans-30" x="159.033203"/>
      </g>
     </g>
    </g>
    <g id="ytick_11">
     <g id="line2d_19">
      <path d="M 43.78125 246.805671 
L 400.90125 246.805671 
" clip-path="url(#p61f1bbc1a5)" style="fill: none; stroke: #b0b0b0; stroke-width: 0.8; stroke-linecap: square"/>
     </g>
     <g id="line2d_20">
      <g>
       <use xlink:href="#m203375aa60" x="400.90125" y="246.805671" style="stroke: #000000; stroke-width: 0.8"/>
      </g>
     </g>
     <g id="text_20">
      <!-- 0.55 -->
      <g transform="translate(407.90125 250.60489) scale(0.1 -0.1)">
       <use xlink:href="#DejaVuSans-30"/>
       <use xlink:href="#DejaVuSans-2e" x="63.623047"/>
       <use xlink:href="#DejaVuSans-35" x="95.410156"/>
       <use xlink:href="#DejaVuSans-35" x="159.033203"/>
      </g>
     </g>
    </g>
    <g id="ytick_12">
     <g id="line2d_21">
      <path d="M 43.78125 216.182886 
L 400.90125 216.182886 
" clip-path="url(#p61f1bbc1a5)" style="fill: none; stroke: #b0b0b0; stroke-width: 0.8; stroke-linecap: square"/>
     </g>
     <g id="line2d_22">
      <g>
       <use xlink:href="#m203375aa60" x="400.90125" y="216.182886" style="stroke: #000000; stroke-width: 0.8"/>
      </g>
     </g>
     <g id="text_21">
      <!-- 0.60 -->
      <g transform="translate(407.90125 219.982105) scale(0.1 -0.1)">
       <use xlink:href="#DejaVuSans-30"/>
       <use xlink:href="#DejaVuSans-2e" x="63.623047"/>
       <use xlink:href="#DejaVuSans-36" x="95.410156"/>
       <use xlink:href="#DejaVuSans-30" x="159.033203"/>
      </g>
     </g>
    </g>
    <g id="ytick_13">
     <g id="line2d_23">
      <path d="M 43.78125 185.560101 
L 400.90125 185.560101 
" clip-path="url(#p61f1bbc1a5)" style="fill: none; stroke: #b0b0b0; stroke-width: 0.8; stroke-linecap: square"/>
     </g>
     <g id="line2d_24">
      <g>
       <use xlink:href="#m203375aa60" x="400.90125" y="185.560101" style="stroke: #000000; stroke-width: 0.8"/>
      </g>
     </g>
     <g id="text_22">
      <!-- 0.65 -->
      <g transform="translate(407.90125 189.35932) scale(0.1 -0.1)">
       <use xlink:href="#DejaVuSans-30"/>
       <use xlink:href="#DejaVuSans-2e" x="63.623047"/>
       <use xlink:href="#DejaVuSans-36" x="95.410156"/>
       <use xlink:href="#DejaVuSans-35" x="159.033203"/>
      </g>
     </g>
    </g>
    <g id="ytick_14">
     <g id="line2d_25">
      <path d="M 43.78125 154.937316 
L 400.90125 154.937316 
" clip-path="url(#p61f1bbc1a5)" style="fill: none; stroke: #b0b0b0; stroke-width: 0.8; stroke-linecap: square"/>
     </g>
     <g id="line2d_26">
      <g>
       <use xlink:href="#m203375aa60" x="400.90125" y="154.937316" style="stroke: #000000; stroke-width: 0.8"/>
      </g>
     </g>
     <g id="text_23">
      <!-- 0.70 -->
      <g transform="translate(407.90125 158.736535) scale(0.1 -0.1)">
       <use xlink:href="#DejaVuSans-30"/>
       <use xlink:href="#DejaVuSans-2e" x="63.623047"/>
       <use xlink:href="#DejaVuSans-37" x="95.410156"/>
       <use xlink:href="#DejaVuSans-30" x="159.033203"/>
      </g>
     </g>
    </g>
    <g id="ytick_15">
     <g id="line2d_27">
      <path d="M 43.78125 124.314532 
L 400.90125 124.314532 
" clip-path="url(#p61f1bbc1a5)" style="fill: none; stroke: #b0b0b0; stroke-width: 0.8; stroke-linecap: square"/>
     </g>
     <g id="line2d_28">
      <g>
       <use xlink:href="#m203375aa60" x="400.90125" y="124.314532" style="stroke: #000000; stroke-width: 0.8"/>
      </g>
     </g>
     <g id="text_24">
      <!-- 0.75 -->
      <g transform="translate(407.90125 128.11375) scale(0.1 -0.1)">
       <use xlink:href="#DejaVuSans-30"/>
       <use xlink:href="#DejaVuSans-2e" x="63.623047"/>
       <use xlink:href="#DejaVuSans-37" x="95.410156"/>
       <use xlink:href="#DejaVuSans-35" x="159.033203"/>
      </g>
     </g>
    </g>
    <g id="ytick_16">
     <g id="line2d_29">
      <path d="M 43.78125 93.691747 
L 400.90125 93.691747 
" clip-path="url(#p61f1bbc1a5)" style="fill: none; stroke: #b0b0b0; stroke-width: 0.8; stroke-linecap: square"/>
     </g>
     <g id="line2d_30">
      <g>
       <use xlink:href="#m203375aa60" x="400.90125" y="93.691747" style="stroke: #000000; stroke-width: 0.8"/>
      </g>
     </g>
     <g id="text_25">
      <!-- 0.80 -->
      <g transform="translate(407.90125 97.490966) scale(0.1 -0.1)">
       <use xlink:href="#DejaVuSans-30"/>
       <use xlink:href="#DejaVuSans-2e" x="63.623047"/>
       <use xlink:href="#DejaVuSans-38" x="95.410156"/>
       <use xlink:href="#DejaVuSans-30" x="159.033203"/>
      </g>
     </g>
    </g>
    <g id="ytick_17">
     <g id="line2d_31">
      <path d="M 43.78125 63.068962 
L 400.90125 63.068962 
" clip-path="url(#p61f1bbc1a5)" style="fill: none; stroke: #b0b0b0; stroke-width: 0.8; stroke-linecap: square"/>
     </g>
     <g id="line2d_32">
      <g>
       <use xlink:href="#m203375aa60" x="400.90125" y="63.068962" style="stroke: #000000; stroke-width: 0.8"/>
      </g>
     </g>
     <g id="text_26">
      <!-- 0.85 -->
      <g transform="translate(407.90125 66.868181) scale(0.1 -0.1)">
       <use xlink:href="#DejaVuSans-30"/>
       <use xlink:href="#DejaVuSans-2e" x="63.623047"/>
       <use xlink:href="#DejaVuSans-38" x="95.410156"/>
       <use xlink:href="#DejaVuSans-35" x="159.033203"/>
      </g>
     </g>
    </g>
    <g id="ytick_18">
     <g id="line2d_33">
      <path d="M 43.78125 32.446177 
L 400.90125 32.446177 
" clip-path="url(#p61f1bbc1a5)" style="fill: none; stroke: #b0b0b0; stroke-width: 0.8; stroke-linecap: square"/>
     </g>
     <g id="line2d_34">
      <g>
       <use xlink:href="#m203375aa60" x="400.90125" y="32.446177" style="stroke: #000000; stroke-width: 0.8"/>
      </g>
     </g>
     <g id="text_27">
      <!-- 0.90 -->
      <g transform="translate(407.90125 36.245396) scale(0.1 -0.1)">
       <use xlink:href="#DejaVuSans-30"/>
       <use xlink:href="#DejaVuSans-2e" x="63.623047"/>
       <use xlink:href="#DejaVuSans-39" x="95.410156"/>
       <use xlink:href="#DejaVuSans-30" x="159.033203"/>
      </g>
     </g>
    </g>
    <g id="text_28">
     <!-- accuracy -->
     <g transform="translate(441.765312 178.415375) rotate(-90) scale(0.1 -0.1)">
      <defs>
       <path id="DejaVuSans-75" d="M 544 1381 
L 544 3500 
L 1119 3500 
L 1119 1403 
Q 1119 906 1312 657 
Q 1506 409 1894 409 
Q 2359 409 2629 706 
Q 2900 1003 2900 1516 
L 2900 3500 
L 3475 3500 
L 3475 0 
L 2900 0 
L 2900 538 
Q 2691 219 2414 64 
Q 2138 -91 1772 -91 
Q 1169 -91 856 284 
Q 544 659 544 1381 
z
M 1991 3584 
L 1991 3584 
z
" transform="scale(0.015625)"/>
       <path id="DejaVuSans-79" d="M 2059 -325 
Q 1816 -950 1584 -1140 
Q 1353 -1331 966 -1331 
L 506 -1331 
L 506 -850 
L 844 -850 
Q 1081 -850 1212 -737 
Q 1344 -625 1503 -206 
L 1606 56 
L 191 3500 
L 800 3500 
L 1894 763 
L 2988 3500 
L 3597 3500 
L 2059 -325 
z
" transform="scale(0.015625)"/>
      </defs>
      <use xlink:href="#DejaVuSans-61"/>
      <use xlink:href="#DejaVuSans-63" x="61.279297"/>
      <use xlink:href="#DejaVuSans-63" x="116.259766"/>
      <use xlink:href="#DejaVuSans-75" x="171.240234"/>
      <use xlink:href="#DejaVuSans-72" x="234.619141"/>
      <use xlink:href="#DejaVuSans-61" x="275.732422"/>
      <use xlink:href="#DejaVuSans-63" x="337.011719"/>
      <use xlink:href="#DejaVuSans-79" x="391.992188"/>
     </g>
    </g>
   </g>
   <g id="line2d_35">
    <path d="M 60.013977 276.816 
L 157.605524 276.816 
L 158.256134 270.691443 
L 158.906745 262.117063 
L 159.557355 257.217418 
L 160.858576 249.867949 
L 161.509186 241.906025 
L 162.159796 240.681114 
L 162.810406 238.231291 
L 163.461017 237.00638 
L 164.111627 234.556557 
L 166.063458 224.14481 
L 166.714068 221.694987 
L 167.364679 221.694987 
L 168.015289 219.85762 
L 168.665899 217.407797 
L 169.31651 211.895696 
L 169.96712 208.833418 
L 170.61773 202.708861 
L 172.569561 191.684658 
L 173.870782 186.785013 
L 174.521392 184.947646 
L 175.172002 178.210633 
L 177.123833 167.798886 
L 178.425054 161.674329 
L 179.726275 156.774684 
L 180.376885 150.037671 
L 181.027495 145.138025 
L 181.678106 142.688203 
L 182.328716 139.625924 
L 183.629936 132.888911 
L 184.280547 130.439089 
L 184.931157 129.214177 
L 185.581767 126.764354 
L 186.232378 124.926987 
L 186.882988 120.639797 
L 187.533598 118.80243 
L 188.184209 113.290329 
L 188.834819 110.840506 
L 189.485429 106.553316 
L 190.78665 100.428759 
L 192.738481 93.079291 
L 193.389091 89.404557 
L 194.039701 87.56719 
L 194.690312 87.56719 
L 195.340922 85.729823 
L 195.991532 83.28 
L 196.642143 81.442633 
L 197.292753 77.155443 
L 198.593974 73.480709 
L 199.244584 69.805975 
L 199.895194 68.581063 
L 200.545805 68.581063 
L 201.196415 67.356152 
L 201.847025 66.743696 
L 202.497635 65.518785 
L 203.148246 63.068962 
L 203.798856 61.844051 
L 204.449466 61.231595 
L 205.100077 58.169316 
L 205.750687 55.719494 
L 206.401297 55.719494 
L 207.051908 53.882127 
L 207.702518 51.432304 
L 208.353128 50.207392 
L 209.003739 47.75757 
L 209.654349 47.75757 
L 213.558011 44.082835 
L 216.160452 44.082835 
L 216.811062 43.47038 
L 218.112283 43.47038 
L 218.762893 42.245468 
L 219.413504 42.245468 
L 220.064114 42.857924 
L 220.714724 42.857924 
L 221.365335 42.245468 
L 222.015945 42.857924 
L 222.666555 42.857924 
L 223.317165 42.245468 
L 223.967776 42.245468 
L 224.618386 41.633013 
L 225.268996 94.304203 
L 225.919607 64.293873 
L 226.570217 48.370025 
L 227.220827 42.245468 
L 227.871438 41.633013 
L 228.522048 38.570734 
L 229.172658 38.570734 
L 229.823269 36.120911 
L 231.124489 38.570734 
L 231.7751 37.345823 
L 232.42571 36.733367 
L 233.07632 37.958278 
L 233.72693 37.958278 
L 234.377541 39.18319 
L 235.028151 38.570734 
L 235.678761 39.18319 
L 236.979982 39.18319 
L 237.630592 39.795646 
L 238.281203 39.18319 
L 240.233034 39.18319 
L 240.883644 38.570734 
L 242.184865 38.570734 
L 242.835475 39.18319 
L 243.486085 39.18319 
L 244.136695 38.570734 
L 244.787306 38.570734 
L 246.088526 37.345823 
L 246.739137 37.345823 
L 247.389747 37.958278 
L 248.040357 37.345823 
L 248.690968 37.958278 
L 249.341578 37.958278 
L 249.992188 37.345823 
L 253.89585 37.345823 
L 254.54646 36.733367 
L 255.197071 36.733367 
L 255.847681 37.345823 
L 256.498291 36.733367 
L 257.148902 36.733367 
L 257.799512 37.345823 
L 261.052564 37.345823 
L 261.703174 37.958278 
L 263.004394 37.958278 
L 263.655005 38.570734 
L 264.305615 38.570734 
L 265.606836 37.345823 
L 266.257446 37.345823 
L 266.908056 36.733367 
L 267.558667 37.958278 
L 268.859887 37.958278 
L 270.161108 36.733367 
L 272.112939 36.733367 
L 272.763549 37.345823 
L 273.414159 37.345823 
L 274.06477 36.733367 
L 275.36599 36.733367 
L 276.016601 37.345823 
L 276.667211 36.733367 
L 277.968432 36.733367 
L 278.619042 36.120911 
L 279.269652 36.120911 
L 279.920263 35.508456 
L 280.570873 35.508456 
L 281.221483 36.733367 
L 282.522704 35.508456 
L 283.173314 36.120911 
L 283.823924 35.508456 
L 285.775755 35.508456 
L 286.426366 34.896 
L 291.631248 34.896 
L 292.281858 35.508456 
L 298.137351 35.508456 
L 298.787962 36.120911 
L 300.089182 36.120911 
L 300.739793 36.733367 
L 305.944675 36.733367 
L 306.595285 37.345823 
L 311.149558 37.345823 
L 311.800168 36.733367 
L 313.751999 36.733367 
L 314.402609 37.958278 
L 315.70383 37.958278 
L 316.35444 36.733367 
L 317.00505 37.345823 
L 317.655661 36.733367 
L 318.306271 37.345823 
L 318.956881 36.733367 
L 319.607492 36.733367 
L 320.258102 37.958278 
L 320.908712 37.345823 
L 321.559323 37.345823 
L 322.209933 37.958278 
L 322.860543 39.18319 
L 323.511153 37.958278 
L 324.161764 38.570734 
L 324.812374 37.958278 
L 325.462984 39.18319 
L 326.113595 37.958278 
L 330.017257 37.958278 
L 331.318477 36.733367 
L 333.270308 36.733367 
L 333.920918 37.345823 
L 334.571529 37.345823 
L 335.222139 37.958278 
L 351.487397 37.958278 
L 352.138007 38.570734 
L 352.788617 38.570734 
L 353.439228 37.958278 
L 354.740448 37.958278 
L 355.391059 36.733367 
L 356.692279 37.958278 
L 357.34289 39.795646 
L 357.9935 42.245468 
L 358.64411 41.633013 
L 359.294721 39.795646 
L 359.945331 38.570734 
L 360.595941 39.18319 
L 361.246552 38.570734 
L 362.547772 38.570734 
L 363.198382 37.958278 
L 363.848993 39.18319 
L 364.499603 38.570734 
L 365.150213 38.570734 
L 365.800824 37.958278 
L 373.608147 37.958278 
L 374.258758 37.345823 
L 374.909368 37.345823 
L 375.559978 37.958278 
L 384.668523 37.958278 
L 384.668523 37.958278 
" clip-path="url(#p61f1bbc1a5)" style="fill: none; stroke-dasharray: 5.55,2.4; stroke-dashoffset: 0; stroke: #2f6c8e; stroke-width: 1.5"/>
   </g>
   <g id="line2d_36">
    <path d="M 60.013977 273.018775 
L 157.605524 273.018775 
L 158.256134 272.038846 
L 158.906745 270.446461 
L 160.207965 268.854076 
L 160.858576 267.506673 
L 161.509186 265.424324 
L 162.810406 261.994572 
L 163.461017 259.054785 
L 164.111627 256.849944 
L 164.762237 254.032648 
L 165.412848 252.195281 
L 166.063458 248.275565 
L 166.714068 245.090795 
L 167.364679 240.803605 
L 168.015289 237.618835 
L 169.96712 224.634775 
L 170.61773 221.817478 
L 171.918951 210.670785 
L 173.870782 195.359392 
L 174.521392 192.419605 
L 175.822613 183.722734 
L 177.123833 175.270846 
L 178.425054 170.738673 
L 179.075664 167.18643 
L 179.726275 162.531767 
L 181.027495 155.794754 
L 182.328716 149.547706 
L 184.280547 137.666066 
L 184.931157 134.84877 
L 185.581767 131.174035 
L 186.232378 128.846704 
L 187.533598 122.109691 
L 188.834819 116.230116 
L 190.13604 109.860577 
L 190.78665 108.02321 
L 191.43726 104.715949 
L 192.087871 102.6336 
L 192.738481 98.958866 
L 194.039701 94.304203 
L 195.340922 89.282066 
L 195.991532 88.057154 
L 196.642143 85.362349 
L 197.292753 83.157509 
L 197.943363 80.09523 
L 198.593974 78.747828 
L 199.244584 76.78797 
L 199.895194 73.725691 
L 200.545805 71.520851 
L 201.196415 70.908395 
L 201.847025 68.948537 
L 202.497635 67.723625 
L 203.148246 66.131241 
L 204.449466 62.334015 
L 205.100077 61.721559 
L 205.750687 60.374157 
L 206.401297 58.046825 
L 207.702518 55.229529 
L 209.003739 53.637144 
L 209.654349 52.412233 
L 210.304959 52.167251 
L 210.95557 52.044759 
L 212.25679 50.207392 
L 212.9074 49.227463 
L 213.558011 49.349954 
L 214.208621 48.982481 
L 214.859231 48.125043 
L 215.509842 48.125043 
L 216.160452 47.880061 
L 216.811062 47.267605 
L 218.112283 47.267605 
L 218.762893 46.900132 
L 219.413504 46.777641 
L 220.064114 46.777641 
L 220.714724 46.532658 
L 221.365335 45.920203 
L 222.015945 45.67522 
L 222.666555 44.940273 
L 224.618386 43.960344 
L 225.268996 85.852314 
L 225.919607 64.293873 
L 226.570217 52.779706 
L 227.220827 45.307747 
L 227.871438 40.408101 
L 228.522048 37.713296 
L 229.172658 36.978349 
L 229.823269 36.978349 
L 230.473879 37.468314 
L 231.124489 36.855858 
L 231.7751 37.100841 
L 232.42571 37.835787 
L 233.07632 38.08077 
L 233.72693 38.203261 
L 234.377541 39.305681 
L 235.678761 40.163119 
L 236.329372 40.530592 
L 236.979982 40.530592 
L 237.630592 40.408101 
L 238.281203 40.530592 
L 238.931813 40.530592 
L 239.582423 40.408101 
L 240.233034 40.040628 
L 240.883644 40.040628 
L 241.534254 39.795646 
L 242.184865 39.428172 
L 242.835475 39.428172 
L 243.486085 38.938208 
L 244.136695 38.693225 
L 244.787306 38.570734 
L 245.437916 38.570734 
L 246.088526 38.203261 
L 246.739137 38.448243 
L 247.389747 38.203261 
L 248.040357 37.835787 
L 248.690968 38.203261 
L 249.341578 38.203261 
L 249.992188 37.958278 
L 250.642799 38.08077 
L 251.293409 38.08077 
L 251.944019 37.958278 
L 252.594629 38.08077 
L 253.24524 37.713296 
L 253.89585 37.713296 
L 254.54646 37.958278 
L 255.197071 37.590805 
L 255.847681 37.590805 
L 256.498291 37.100841 
L 258.450122 37.100841 
L 259.100733 36.978349 
L 259.751343 37.100841 
L 260.401953 37.100841 
L 261.052564 37.345823 
L 261.703174 37.223332 
L 263.004394 37.223332 
L 264.305615 36.733367 
L 264.956225 36.978349 
L 265.606836 37.345823 
L 266.257446 37.223332 
L 266.908056 37.223332 
L 267.558667 37.100841 
L 268.209277 37.345823 
L 268.859887 37.958278 
L 270.161108 37.223332 
L 270.811718 37.100841 
L 271.462329 37.590805 
L 272.763549 37.590805 
L 273.414159 37.713296 
L 274.06477 37.345823 
L 274.71538 37.223332 
L 275.36599 37.345823 
L 276.016601 37.590805 
L 277.317821 37.345823 
L 278.619042 37.835787 
L 279.269652 37.713296 
L 279.920263 37.958278 
L 280.570873 37.958278 
L 281.221483 37.835787 
L 282.522704 38.08077 
L 283.823924 37.835787 
L 284.474535 37.958278 
L 285.125145 37.835787 
L 285.775755 37.468314 
L 287.076976 37.468314 
L 288.378197 37.223332 
L 289.028807 37.345823 
L 289.679417 37.345823 
L 290.330028 37.223332 
L 292.932469 37.223332 
L 293.583079 36.978349 
L 294.233689 36.978349 
L 294.8843 36.855858 
L 297.486741 36.855858 
L 298.137351 36.733367 
L 298.787962 36.855858 
L 299.438572 36.855858 
L 300.089182 37.100841 
L 300.739793 36.978349 
L 301.390403 36.978349 
L 302.041013 37.100841 
L 303.342234 37.100841 
L 303.992844 36.733367 
L 305.944675 36.733367 
L 306.595285 36.855858 
L 307.896506 36.855858 
L 308.547116 36.978349 
L 309.197727 36.855858 
L 310.498947 36.855858 
L 311.149558 36.978349 
L 311.800168 36.978349 
L 312.450778 37.100841 
L 313.751999 37.100841 
L 314.402609 36.978349 
L 315.053219 37.100841 
L 315.70383 37.100841 
L 316.35444 36.978349 
L 321.559323 36.978349 
L 322.209933 37.100841 
L 322.860543 37.100841 
L 323.511153 36.488385 
L 324.161764 36.978349 
L 324.812374 36.488385 
L 325.462984 37.468314 
L 326.113595 37.345823 
L 326.764205 36.978349 
L 327.414815 37.345823 
L 328.065426 36.978349 
L 328.716036 37.100841 
L 329.366646 37.100841 
L 330.017257 36.978349 
L 335.872749 36.978349 
L 336.52336 37.100841 
L 339.125801 37.100841 
L 339.776411 36.978349 
L 340.427022 37.100841 
L 341.728242 37.100841 
L 342.378852 36.978349 
L 343.029463 36.978349 
L 343.680073 37.100841 
L 344.330683 36.855858 
L 344.981294 37.100841 
L 349.535566 37.100841 
L 350.186176 36.855858 
L 350.836787 37.100841 
L 351.487397 37.100841 
L 352.138007 37.713296 
L 352.788617 37.835787 
L 354.740448 37.100841 
L 355.391059 36.978349 
L 356.041669 37.345823 
L 356.692279 37.100841 
L 357.34289 42.490451 
L 357.9935 40.653084 
L 359.945331 36.610876 
L 360.595941 36.243403 
L 361.897162 37.223332 
L 363.198382 36.978349 
L 363.848993 37.223332 
L 365.150213 37.958278 
L 365.800824 37.835787 
L 366.451434 37.345823 
L 367.102044 37.223332 
L 369.704486 37.223332 
L 370.355096 37.100841 
L 371.656316 37.100841 
L 372.306927 37.223332 
L 376.861199 37.223332 
L 377.511809 37.345823 
L 378.81303 37.345823 
L 380.114251 37.590805 
L 380.764861 37.590805 
L 381.415471 37.713296 
L 382.716692 37.713296 
L 383.367302 37.958278 
L 384.017912 37.713296 
L 384.668523 37.835787 
L 384.668523 37.835787 
" clip-path="url(#p61f1bbc1a5)" style="fill: none; stroke-dasharray: 1.5,2.475; stroke-dashoffset: 0; stroke: #44bf70; stroke-width: 1.5"/>
   </g>
   <g id="patch_7">
    <path d="M 43.78125 288.912 
L 43.78125 22.8 
" style="fill: none; stroke: #000000; stroke-width: 0.8; stroke-linejoin: miter; stroke-linecap: square"/>
   </g>
   <g id="patch_8">
    <path d="M 400.90125 288.912 
L 400.90125 22.8 
" style="fill: none; stroke: #000000; stroke-width: 0.8; stroke-linejoin: miter; stroke-linecap: square"/>
   </g>
   <g id="patch_9">
    <path d="M 43.78125 288.912 
L 400.90125 288.912 
" style="fill: none; stroke: #000000; stroke-width: 0.8; stroke-linejoin: miter; stroke-linecap: square"/>
   </g>
   <g id="patch_10">
    <path d="M 43.78125 22.8 
L 400.90125 22.8 
" style="fill: none; stroke: #000000; stroke-width: 0.8; stroke-linejoin: miter; stroke-linecap: square"/>
   </g>
  </g>
  <g id="legend_1">
   <g id="patch_11">
    <path d="M 75.43125 346.12 
L 357.73125 346.12 
Q 359.73125 346.12 359.73125 344.12 
L 359.73125 330.421562 
Q 359.73125 328.421562 357.73125 328.421562 
L 75.43125 328.421562 
Q 73.43125 328.421562 73.43125 330.421562 
L 73.43125 344.12 
Q 73.43125 346.12 75.43125 346.12 
z
" style="fill: #ffffff; opacity: 0.8; stroke: #cccccc; stroke-linejoin: miter"/>
   </g>
   <g id="line2d_37">
    <path d="M 77.43125 336.52 
L 87.43125 336.52 
L 97.43125 336.52 
" style="fill: none; stroke: #440154; stroke-width: 1.5; stroke-linecap: square"/>
   </g>
   <g id="text_29">
    <!-- $\mathbf{V}_o$ loss -->
    <g transform="translate(105.43125 340.02) scale(0.1 -0.1)">
     <defs>
      <path id="DejaVuSerif-Bold-56" d="M 5056 4666 
L 5056 4288 
L 4666 4288 
L 2906 0 
L 2163 0 
L 403 4288 
L -38 4288 
L -38 4666 
L 2150 4666 
L 2150 4288 
L 1697 4288 
L 2956 1197 
L 4225 4288 
L 3669 4288 
L 3669 4666 
L 5056 4666 
z
" transform="scale(0.015625)"/>
      <path id="DejaVuSerif-Italic-6f" d="M 1644 219 
Q 2106 219 2414 584 
Q 2722 950 2859 1663 
Q 2922 1988 2922 2241 
Q 2922 2541 2834 2738 
Q 2669 3103 2206 3103 
Q 1744 3103 1436 2739 
Q 1128 2375 991 1663 
Q 928 1338 928 1088 
Q 928 784 1019 584 
Q 1184 219 1644 219 
z
M 1584 -91 
Q 859 -91 513 388 
Q 272 722 272 1203 
Q 272 1419 319 1663 
Q 472 2456 1005 2934 
Q 1538 3413 2266 3413 
Q 2994 3413 3341 2934 
Q 3578 2603 3578 2122 
Q 3578 1906 3531 1663 
Q 3378 869 2845 389 
Q 2313 -91 1584 -91 
z
" transform="scale(0.015625)"/>
     </defs>
     <use xlink:href="#DejaVuSerif-Bold-56" transform="translate(0 0.015625)"/>
     <use xlink:href="#DejaVuSerif-Italic-6f" transform="translate(78.49625 -15.55625) scale(0.7)"/>
     <use xlink:href="#DejaVuSans-20" transform="translate(123.235117 0.015625)"/>
     <use xlink:href="#DejaVuSans-6c" transform="translate(155.022227 0.015625)"/>
     <use xlink:href="#DejaVuSans-6f" transform="translate(182.80543 0.015625)"/>
     <use xlink:href="#DejaVuSans-73" transform="translate(243.98707 0.015625)"/>
     <use xlink:href="#DejaVuSans-73" transform="translate(296.08668 0.015625)"/>
    </g>
   </g>
   <g id="line2d_38">
    <path d="M 160.33125 336.52 
L 170.33125 336.52 
L 180.33125 336.52 
" style="fill: none; stroke-dasharray: 5.55,2.4; stroke-dashoffset: 0; stroke: #2f6c8e; stroke-width: 1.5"/>
   </g>
   <g id="text_30">
    <!-- $\mathbf{V}_o$ accuracy -->
    <g transform="translate(188.33125 340.02) scale(0.1 -0.1)">
     <use xlink:href="#DejaVuSerif-Bold-56" transform="translate(0 0.09375)"/>
     <use xlink:href="#DejaVuSerif-Italic-6f" transform="translate(78.49625 -15.478125) scale(0.7)"/>
     <use xlink:href="#DejaVuSans-20" transform="translate(123.235117 0.09375)"/>
     <use xlink:href="#DejaVuSans-61" transform="translate(155.022227 0.09375)"/>
     <use xlink:href="#DejaVuSans-63" transform="translate(216.301523 0.09375)"/>
     <use xlink:href="#DejaVuSans-63" transform="translate(271.281992 0.09375)"/>
     <use xlink:href="#DejaVuSans-75" transform="translate(326.262461 0.09375)"/>
     <use xlink:href="#DejaVuSans-72" transform="translate(389.641367 0.09375)"/>
     <use xlink:href="#DejaVuSans-61" transform="translate(430.754648 0.09375)"/>
     <use xlink:href="#DejaVuSans-63" transform="translate(492.033945 0.09375)"/>
     <use xlink:href="#DejaVuSans-79" transform="translate(547.014414 0.09375)"/>
    </g>
   </g>
   <g id="line2d_39">
    <path d="M 269.03125 336.52 
L 279.03125 336.52 
L 289.03125 336.52 
" style="fill: none; stroke-dasharray: 1.5,2.475; stroke-dashoffset: 0; stroke: #44bf70; stroke-width: 1.5"/>
   </g>
   <g id="text_31">
    <!-- $\mathbf{V}_i$ accuracy -->
    <g transform="translate(297.03125 340.02) scale(0.1 -0.1)">
     <defs>
      <path id="DejaVuSerif-Italic-69" d="M 1009 4353 
Q 1038 4497 1163 4603 
Q 1288 4709 1434 4709 
Q 1578 4709 1663 4603 
Q 1728 4522 1728 4422 
Q 1728 4388 1719 4353 
Q 1691 4206 1567 4103 
Q 1444 4000 1297 4000 
Q 1150 4000 1066 4103 
Q 1003 4181 1003 4281 
Q 1003 4316 1009 4353 
z
M 963 331 
L 1506 331 
L 1444 0 
L 325 0 
L 903 2988 
L 353 2988 
L 419 3322 
L 1544 3322 
L 963 331 
z
" transform="scale(0.015625)"/>
     </defs>
     <use xlink:href="#DejaVuSerif-Bold-56" transform="translate(0 0.09375)"/>
     <use xlink:href="#DejaVuSerif-Italic-69" transform="translate(78.49625 -15.478125) scale(0.7)"/>
     <use xlink:href="#DejaVuSans-20" transform="translate(103.479258 0.09375)"/>
     <use xlink:href="#DejaVuSans-61" transform="translate(135.266367 0.09375)"/>
     <use xlink:href="#DejaVuSans-63" transform="translate(196.545664 0.09375)"/>
     <use xlink:href="#DejaVuSans-63" transform="translate(251.526133 0.09375)"/>
     <use xlink:href="#DejaVuSans-75" transform="translate(306.506602 0.09375)"/>
     <use xlink:href="#DejaVuSans-72" transform="translate(369.885508 0.09375)"/>
     <use xlink:href="#DejaVuSans-61" transform="translate(410.998789 0.09375)"/>
     <use xlink:href="#DejaVuSans-63" transform="translate(472.278086 0.09375)"/>
     <use xlink:href="#DejaVuSans-79" transform="translate(527.258555 0.09375)"/>
    </g>
   </g>
  </g>
 </g>
 <defs>
  <clipPath id="p61f1bbc1a5">
   <rect x="43.78125" y="22.8" width="357.12" height="266.112"/>
  </clipPath>
 </defs>
</svg>
