<?xml version="1.0" encoding="utf-8" standalone="no"?>
<!DOCTYPE svg PUBLIC "-//W3C//DTD SVG 1.1//EN"
  "http://www.w3.org/Graphics/SVG/1.1/DTD/svg11.dtd">
<svg xmlns:xlink="http://www.w3.org/1999/xlink" width="451.045pt" height="353.32pt" viewBox="0 0 451.045 353.32" xmlns="http://www.w3.org/2000/svg" version="1.1">
 <metadata>
  <rdf:RDF xmlns:dc="http://purl.org/dc/elements/1.1/" xmlns:cc="http://creativecommons.org/ns#" xmlns:rdf="http://www.w3.org/1999/02/22-rdf-syntax-ns#">
   <cc:Work>
    <dc:type rdf:resource="http://purl.org/dc/dcmitype/StillImage"/>
    <dc:date>2024-06-03T13:49:28.784197</dc:date>
    <dc:format>image/svg+xml</dc:format>
    <dc:creator>
     <cc:Agent>
      <dc:title>Matplotlib v3.7.1, https://matplotlib.org/</dc:title>
     </cc:Agent>
    </dc:creator>
   </cc:Work>
  </rdf:RDF>
 </metadata>
 <defs>
  <style type="text/css">*{stroke-linejoin: round; stroke-linecap: butt}</style>
 </defs>
 <g id="figure_1">
  <g id="patch_1">
   <path d="M 0 353.32 
L 451.045 353.32 
L 451.045 -0 
L 0 -0 
z
" style="fill: #ffffff"/>
  </g>
  <g id="axes_1">
   <g id="patch_2">
    <path d="M 43.78125 288.912 
L 400.90125 288.912 
L 400.90125 22.8 
L 43.78125 22.8 
z
" style="fill: #ffffff"/>
   </g>
   <g id="matplotlib.axis_1">
    <g id="xtick_1">
     <g id="line2d_1">
      <defs>
       <path id="m63c7beda9b" d="M 0 0 
L 0 3.5 
" style="stroke: #000000; stroke-width: 0.8"/>
      </defs>
      <g>
       <use xlink:href="#m63c7beda9b" x="59.363367" y="288.912" style="stroke: #000000; stroke-width: 0.8"/>
      </g>
     </g>
     <g id="text_1">
      <!-- 0 -->
      <g transform="translate(56.182117 303.510437) scale(0.1 -0.1)">
       <defs>
        <path id="DejaVuSans-30" d="M 2034 4250 
Q 1547 4250 1301 3770 
Q 1056 3291 1056 2328 
Q 1056 1369 1301 889 
Q 1547 409 2034 409 
Q 2525 409 2770 889 
Q 3016 1369 3016 2328 
Q 3016 3291 2770 3770 
Q 2525 4250 2034 4250 
z
M 2034 4750 
Q 2819 4750 3233 4129 
Q 3647 3509 3647 2328 
Q 3647 1150 3233 529 
Q 2819 -91 2034 -91 
Q 1250 -91 836 529 
Q 422 1150 422 2328 
Q 422 3509 836 4129 
Q 1250 4750 2034 4750 
z
" transform="scale(0.015625)"/>
       </defs>
       <use xlink:href="#DejaVuSans-30"/>
      </g>
     </g>
    </g>
    <g id="xtick_2">
     <g id="line2d_2">
      <g>
       <use xlink:href="#m63c7beda9b" x="124.424398" y="288.912" style="stroke: #000000; stroke-width: 0.8"/>
      </g>
     </g>
     <g id="text_2">
      <!-- 100 -->
      <g transform="translate(114.880648 303.510437) scale(0.1 -0.1)">
       <defs>
        <path id="DejaVuSans-31" d="M 794 531 
L 1825 531 
L 1825 4091 
L 703 3866 
L 703 4441 
L 1819 4666 
L 2450 4666 
L 2450 531 
L 3481 531 
L 3481 0 
L 794 0 
L 794 531 
z
" transform="scale(0.015625)"/>
       </defs>
       <use xlink:href="#DejaVuSans-31"/>
       <use xlink:href="#DejaVuSans-30" x="63.623047"/>
       <use xlink:href="#DejaVuSans-30" x="127.246094"/>
      </g>
     </g>
    </g>
    <g id="xtick_3">
     <g id="line2d_3">
      <g>
       <use xlink:href="#m63c7beda9b" x="189.485429" y="288.912" style="stroke: #000000; stroke-width: 0.8"/>
      </g>
     </g>
     <g id="text_3">
      <!-- 200 -->
      <g transform="translate(179.941679 303.510437) scale(0.1 -0.1)">
       <defs>
        <path id="DejaVuSans-32" d="M 1228 531 
L 3431 531 
L 3431 0 
L 469 0 
L 469 531 
Q 828 903 1448 1529 
Q 2069 2156 2228 2338 
Q 2531 2678 2651 2914 
Q 2772 3150 2772 3378 
Q 2772 3750 2511 3984 
Q 2250 4219 1831 4219 
Q 1534 4219 1204 4116 
Q 875 4013 500 3803 
L 500 4441 
Q 881 4594 1212 4672 
Q 1544 4750 1819 4750 
Q 2544 4750 2975 4387 
Q 3406 4025 3406 3419 
Q 3406 3131 3298 2873 
Q 3191 2616 2906 2266 
Q 2828 2175 2409 1742 
Q 1991 1309 1228 531 
z
" transform="scale(0.015625)"/>
       </defs>
       <use xlink:href="#DejaVuSans-32"/>
       <use xlink:href="#DejaVuSans-30" x="63.623047"/>
       <use xlink:href="#DejaVuSans-30" x="127.246094"/>
      </g>
     </g>
    </g>
    <g id="xtick_4">
     <g id="line2d_4">
      <g>
       <use xlink:href="#m63c7beda9b" x="254.54646" y="288.912" style="stroke: #000000; stroke-width: 0.8"/>
      </g>
     </g>
     <g id="text_4">
      <!-- 300 -->
      <g transform="translate(245.00271 303.510437) scale(0.1 -0.1)">
       <defs>
        <path id="DejaVuSans-33" d="M 2597 2516 
Q 3050 2419 3304 2112 
Q 3559 1806 3559 1356 
Q 3559 666 3084 287 
Q 2609 -91 1734 -91 
Q 1441 -91 1130 -33 
Q 819 25 488 141 
L 488 750 
Q 750 597 1062 519 
Q 1375 441 1716 441 
Q 2309 441 2620 675 
Q 2931 909 2931 1356 
Q 2931 1769 2642 2001 
Q 2353 2234 1838 2234 
L 1294 2234 
L 1294 2753 
L 1863 2753 
Q 2328 2753 2575 2939 
Q 2822 3125 2822 3475 
Q 2822 3834 2567 4026 
Q 2313 4219 1838 4219 
Q 1578 4219 1281 4162 
Q 984 4106 628 3988 
L 628 4550 
Q 988 4650 1302 4700 
Q 1616 4750 1894 4750 
Q 2613 4750 3031 4423 
Q 3450 4097 3450 3541 
Q 3450 3153 3228 2886 
Q 3006 2619 2597 2516 
z
" transform="scale(0.015625)"/>
       </defs>
       <use xlink:href="#DejaVuSans-33"/>
       <use xlink:href="#DejaVuSans-30" x="63.623047"/>
       <use xlink:href="#DejaVuSans-30" x="127.246094"/>
      </g>
     </g>
    </g>
    <g id="xtick_5">
     <g id="line2d_5">
      <g>
       <use xlink:href="#m63c7beda9b" x="319.607492" y="288.912" style="stroke: #000000; stroke-width: 0.8"/>
      </g>
     </g>
     <g id="text_5">
      <!-- 400 -->
      <g transform="translate(310.063742 303.510437) scale(0.1 -0.1)">
       <defs>
        <path id="DejaVuSans-34" d="M 2419 4116 
L 825 1625 
L 2419 1625 
L 2419 4116 
z
M 2253 4666 
L 3047 4666 
L 3047 1625 
L 3713 1625 
L 3713 1100 
L 3047 1100 
L 3047 0 
L 2419 0 
L 2419 1100 
L 313 1100 
L 313 1709 
L 2253 4666 
z
" transform="scale(0.015625)"/>
       </defs>
       <use xlink:href="#DejaVuSans-34"/>
       <use xlink:href="#DejaVuSans-30" x="63.623047"/>
       <use xlink:href="#DejaVuSans-30" x="127.246094"/>
      </g>
     </g>
    </g>
    <g id="xtick_6">
     <g id="line2d_6">
      <g>
       <use xlink:href="#m63c7beda9b" x="384.668523" y="288.912" style="stroke: #000000; stroke-width: 0.8"/>
      </g>
     </g>
     <g id="text_6">
      <!-- 500 -->
      <g transform="translate(375.124773 303.510437) scale(0.1 -0.1)">
       <defs>
        <path id="DejaVuSans-35" d="M 691 4666 
L 3169 4666 
L 3169 4134 
L 1269 4134 
L 1269 2991 
Q 1406 3038 1543 3061 
Q 1681 3084 1819 3084 
Q 2600 3084 3056 2656 
Q 3513 2228 3513 1497 
Q 3513 744 3044 326 
Q 2575 -91 1722 -91 
Q 1428 -91 1123 -41 
Q 819 9 494 109 
L 494 744 
Q 775 591 1075 516 
Q 1375 441 1709 441 
Q 2250 441 2565 725 
Q 2881 1009 2881 1497 
Q 2881 1984 2565 2268 
Q 2250 2553 1709 2553 
Q 1456 2553 1204 2497 
Q 953 2441 691 2322 
L 691 4666 
z
" transform="scale(0.015625)"/>
       </defs>
       <use xlink:href="#DejaVuSans-35"/>
       <use xlink:href="#DejaVuSans-30" x="63.623047"/>
       <use xlink:href="#DejaVuSans-30" x="127.246094"/>
      </g>
     </g>
    </g>
    <g id="text_7">
     <!-- epoch -->
     <g transform="translate(207.113125 317.188562) scale(0.1 -0.1)">
      <defs>
       <path id="DejaVuSans-65" d="M 3597 1894 
L 3597 1613 
L 953 1613 
Q 991 1019 1311 708 
Q 1631 397 2203 397 
Q 2534 397 2845 478 
Q 3156 559 3463 722 
L 3463 178 
Q 3153 47 2828 -22 
Q 2503 -91 2169 -91 
Q 1331 -91 842 396 
Q 353 884 353 1716 
Q 353 2575 817 3079 
Q 1281 3584 2069 3584 
Q 2775 3584 3186 3129 
Q 3597 2675 3597 1894 
z
M 3022 2063 
Q 3016 2534 2758 2815 
Q 2500 3097 2075 3097 
Q 1594 3097 1305 2825 
Q 1016 2553 972 2059 
L 3022 2063 
z
" transform="scale(0.015625)"/>
       <path id="DejaVuSans-70" d="M 1159 525 
L 1159 -1331 
L 581 -1331 
L 581 3500 
L 1159 3500 
L 1159 2969 
Q 1341 3281 1617 3432 
Q 1894 3584 2278 3584 
Q 2916 3584 3314 3078 
Q 3713 2572 3713 1747 
Q 3713 922 3314 415 
Q 2916 -91 2278 -91 
Q 1894 -91 1617 61 
Q 1341 213 1159 525 
z
M 3116 1747 
Q 3116 2381 2855 2742 
Q 2594 3103 2138 3103 
Q 1681 3103 1420 2742 
Q 1159 2381 1159 1747 
Q 1159 1113 1420 752 
Q 1681 391 2138 391 
Q 2594 391 2855 752 
Q 3116 1113 3116 1747 
z
" transform="scale(0.015625)"/>
       <path id="DejaVuSans-6f" d="M 1959 3097 
Q 1497 3097 1228 2736 
Q 959 2375 959 1747 
Q 959 1119 1226 758 
Q 1494 397 1959 397 
Q 2419 397 2687 759 
Q 2956 1122 2956 1747 
Q 2956 2369 2687 2733 
Q 2419 3097 1959 3097 
z
M 1959 3584 
Q 2709 3584 3137 3096 
Q 3566 2609 3566 1747 
Q 3566 888 3137 398 
Q 2709 -91 1959 -91 
Q 1206 -91 779 398 
Q 353 888 353 1747 
Q 353 2609 779 3096 
Q 1206 3584 1959 3584 
z
" transform="scale(0.015625)"/>
       <path id="DejaVuSans-63" d="M 3122 3366 
L 3122 2828 
Q 2878 2963 2633 3030 
Q 2388 3097 2138 3097 
Q 1578 3097 1268 2742 
Q 959 2388 959 1747 
Q 959 1106 1268 751 
Q 1578 397 2138 397 
Q 2388 397 2633 464 
Q 2878 531 3122 666 
L 3122 134 
Q 2881 22 2623 -34 
Q 2366 -91 2075 -91 
Q 1284 -91 818 406 
Q 353 903 353 1747 
Q 353 2603 823 3093 
Q 1294 3584 2113 3584 
Q 2378 3584 2631 3529 
Q 2884 3475 3122 3366 
z
" transform="scale(0.015625)"/>
       <path id="DejaVuSans-68" d="M 3513 2113 
L 3513 0 
L 2938 0 
L 2938 2094 
Q 2938 2591 2744 2837 
Q 2550 3084 2163 3084 
Q 1697 3084 1428 2787 
Q 1159 2491 1159 1978 
L 1159 0 
L 581 0 
L 581 4863 
L 1159 4863 
L 1159 2956 
Q 1366 3272 1645 3428 
Q 1925 3584 2291 3584 
Q 2894 3584 3203 3211 
Q 3513 2838 3513 2113 
z
" transform="scale(0.015625)"/>
      </defs>
      <use xlink:href="#DejaVuSans-65"/>
      <use xlink:href="#DejaVuSans-70" x="61.523438"/>
      <use xlink:href="#DejaVuSans-6f" x="125"/>
      <use xlink:href="#DejaVuSans-63" x="186.181641"/>
      <use xlink:href="#DejaVuSans-68" x="241.162109"/>
     </g>
    </g>
   </g>
   <g id="matplotlib.axis_2">
    <g id="ytick_1">
     <g id="line2d_7">
      <defs>
       <path id="m575613a754" d="M 0 0 
L -3.5 0 
" style="stroke: #000000; stroke-width: 0.8"/>
      </defs>
      <g>
       <use xlink:href="#m575613a754" x="43.78125" y="243.992666" style="stroke: #000000; stroke-width: 0.8"/>
      </g>
     </g>
     <g id="text_8">
      <!-- 0.3 -->
      <g transform="translate(20.878125 247.791885) scale(0.1 -0.1)">
       <defs>
        <path id="DejaVuSans-2e" d="M 684 794 
L 1344 794 
L 1344 0 
L 684 0 
L 684 794 
z
" transform="scale(0.015625)"/>
       </defs>
       <use xlink:href="#DejaVuSans-30"/>
       <use xlink:href="#DejaVuSans-2e" x="63.623047"/>
       <use xlink:href="#DejaVuSans-33" x="95.410156"/>
      </g>
     </g>
    </g>
    <g id="ytick_2">
     <g id="line2d_8">
      <g>
       <use xlink:href="#m575613a754" x="43.78125" y="196.822653" style="stroke: #000000; stroke-width: 0.8"/>
      </g>
     </g>
     <g id="text_9">
      <!-- 0.4 -->
      <g transform="translate(20.878125 200.621871) scale(0.1 -0.1)">
       <use xlink:href="#DejaVuSans-30"/>
       <use xlink:href="#DejaVuSans-2e" x="63.623047"/>
       <use xlink:href="#DejaVuSans-34" x="95.410156"/>
      </g>
     </g>
    </g>
    <g id="ytick_3">
     <g id="line2d_9">
      <g>
       <use xlink:href="#m575613a754" x="43.78125" y="149.652639" style="stroke: #000000; stroke-width: 0.8"/>
      </g>
     </g>
     <g id="text_10">
      <!-- 0.5 -->
      <g transform="translate(20.878125 153.451858) scale(0.1 -0.1)">
       <use xlink:href="#DejaVuSans-30"/>
       <use xlink:href="#DejaVuSans-2e" x="63.623047"/>
       <use xlink:href="#DejaVuSans-35" x="95.410156"/>
      </g>
     </g>
    </g>
    <g id="ytick_4">
     <g id="line2d_10">
      <g>
       <use xlink:href="#m575613a754" x="43.78125" y="102.482626" style="stroke: #000000; stroke-width: 0.8"/>
      </g>
     </g>
     <g id="text_11">
      <!-- 0.6 -->
      <g transform="translate(20.878125 106.281845) scale(0.1 -0.1)">
       <defs>
        <path id="DejaVuSans-36" d="M 2113 2584 
Q 1688 2584 1439 2293 
Q 1191 2003 1191 1497 
Q 1191 994 1439 701 
Q 1688 409 2113 409 
Q 2538 409 2786 701 
Q 3034 994 3034 1497 
Q 3034 2003 2786 2293 
Q 2538 2584 2113 2584 
z
M 3366 4563 
L 3366 3988 
Q 3128 4100 2886 4159 
Q 2644 4219 2406 4219 
Q 1781 4219 1451 3797 
Q 1122 3375 1075 2522 
Q 1259 2794 1537 2939 
Q 1816 3084 2150 3084 
Q 2853 3084 3261 2657 
Q 3669 2231 3669 1497 
Q 3669 778 3244 343 
Q 2819 -91 2113 -91 
Q 1303 -91 875 529 
Q 447 1150 447 2328 
Q 447 3434 972 4092 
Q 1497 4750 2381 4750 
Q 2619 4750 2861 4703 
Q 3103 4656 3366 4563 
z
" transform="scale(0.015625)"/>
       </defs>
       <use xlink:href="#DejaVuSans-30"/>
       <use xlink:href="#DejaVuSans-2e" x="63.623047"/>
       <use xlink:href="#DejaVuSans-36" x="95.410156"/>
      </g>
     </g>
    </g>
    <g id="ytick_5">
     <g id="line2d_11">
      <g>
       <use xlink:href="#m575613a754" x="43.78125" y="55.312613" style="stroke: #000000; stroke-width: 0.8"/>
      </g>
     </g>
     <g id="text_12">
      <!-- 0.7 -->
      <g transform="translate(20.878125 59.111831) scale(0.1 -0.1)">
       <defs>
        <path id="DejaVuSans-37" d="M 525 4666 
L 3525 4666 
L 3525 4397 
L 1831 0 
L 1172 0 
L 2766 4134 
L 525 4134 
L 525 4666 
z
" transform="scale(0.015625)"/>
       </defs>
       <use xlink:href="#DejaVuSans-30"/>
       <use xlink:href="#DejaVuSans-2e" x="63.623047"/>
       <use xlink:href="#DejaVuSans-37" x="95.410156"/>
      </g>
     </g>
    </g>
    <g id="text_13">
     <!-- loss -->
     <g transform="translate(14.798438 165.513812) rotate(-90) scale(0.1 -0.1)">
      <defs>
       <path id="DejaVuSans-6c" d="M 603 4863 
L 1178 4863 
L 1178 0 
L 603 0 
L 603 4863 
z
" transform="scale(0.015625)"/>
       <path id="DejaVuSans-73" d="M 2834 3397 
L 2834 2853 
Q 2591 2978 2328 3040 
Q 2066 3103 1784 3103 
Q 1356 3103 1142 2972 
Q 928 2841 928 2578 
Q 928 2378 1081 2264 
Q 1234 2150 1697 2047 
L 1894 2003 
Q 2506 1872 2764 1633 
Q 3022 1394 3022 966 
Q 3022 478 2636 193 
Q 2250 -91 1575 -91 
Q 1294 -91 989 -36 
Q 684 19 347 128 
L 347 722 
Q 666 556 975 473 
Q 1284 391 1588 391 
Q 1994 391 2212 530 
Q 2431 669 2431 922 
Q 2431 1156 2273 1281 
Q 2116 1406 1581 1522 
L 1381 1569 
Q 847 1681 609 1914 
Q 372 2147 372 2553 
Q 372 3047 722 3315 
Q 1072 3584 1716 3584 
Q 2034 3584 2315 3537 
Q 2597 3491 2834 3397 
z
" transform="scale(0.015625)"/>
      </defs>
      <use xlink:href="#DejaVuSans-6c"/>
      <use xlink:href="#DejaVuSans-6f" x="27.783203"/>
      <use xlink:href="#DejaVuSans-73" x="88.964844"/>
      <use xlink:href="#DejaVuSans-73" x="141.064453"/>
     </g>
    </g>
   </g>
   <g id="line2d_12">
    <path d="M 60.013977 34.896 
L 61.315198 40.311878 
L 62.616419 44.563479 
L 63.917639 47.912248 
L 65.21886 50.559099 
L 66.52008 52.658021 
L 67.821301 54.329095 
L 69.122522 55.666747 
L 70.423742 56.745202 
L 72.375573 58.000209 
L 74.327404 58.944483 
L 76.929845 59.891034 
L 80.182897 60.778275 
L 85.387779 61.890876 
L 96.448155 64.174053 
L 101.653037 65.472639 
L 106.207309 66.818262 
L 110.110971 68.175257 
L 114.014633 69.769506 
L 117.267685 71.320639 
L 120.520736 73.116222 
L 123.773788 75.204053 
L 126.376229 77.119872 
L 128.97867 79.290615 
L 131.581112 81.755376 
L 134.183553 84.559435 
L 136.785994 87.752866 
L 139.388435 91.391535 
L 141.990877 95.539839 
L 145.243928 101.298473 
L 147.846369 106.271195 
L 151.099421 112.976479 
L 154.352472 120.260437 
L 157.605524 128.071547 
L 161.509186 138.08181 
L 166.714068 152.204263 
L 179.726275 188.016644 
L 183.629936 197.995981 
L 187.533598 207.334262 
L 190.78665 214.559887 
L 194.039701 221.229261 
L 197.292753 227.334708 
L 200.545805 232.882202 
L 203.148246 236.921186 
L 205.750687 240.623156 
L 208.353128 244.005284 
L 210.95557 247.087561 
L 213.558011 249.884774 
L 216.811062 253.011894 
L 220.064114 255.771172 
L 223.317165 258.199032 
L 226.570217 260.332051 
L 229.823269 262.206245 
L 233.07632 263.851565 
L 236.979982 265.564394 
L 240.883644 267.030924 
L 245.437916 268.478838 
L 249.992188 269.690494 
L 255.197071 270.838771 
L 261.052564 271.886439 
L 267.558667 272.813542 
L 274.71538 273.611541 
L 283.173314 274.329337 
L 293.583079 274.977126 
L 306.595285 275.543116 
L 322.860543 276.012585 
L 345.631904 276.422565 
L 378.81303 276.771433 
L 384.668523 276.816 
L 384.668523 276.816 
" clip-path="url(#p82a9c1c07f)" style="fill: none; stroke: #440154; stroke-width: 1.5; stroke-linecap: square"/>
   </g>
   <g id="patch_3">
    <path d="M 43.78125 288.912 
L 43.78125 22.8 
" style="fill: none; stroke: #000000; stroke-width: 0.8; stroke-linejoin: miter; stroke-linecap: square"/>
   </g>
   <g id="patch_4">
    <path d="M 400.90125 288.912 
L 400.90125 22.8 
" style="fill: none; stroke: #000000; stroke-width: 0.8; stroke-linejoin: miter; stroke-linecap: square"/>
   </g>
   <g id="patch_5">
    <path d="M 43.78125 288.912 
L 400.90125 288.912 
" style="fill: none; stroke: #000000; stroke-width: 0.8; stroke-linejoin: miter; stroke-linecap: square"/>
   </g>
   <g id="patch_6">
    <path d="M 43.78125 22.8 
L 400.90125 22.8 
" style="fill: none; stroke: #000000; stroke-width: 0.8; stroke-linejoin: miter; stroke-linecap: square"/>
   </g>
   <g id="text_14">
    <!-- Training Performance $\mathcal{N}$ -->
    <g transform="translate(149.86125 16.8) scale(0.12 -0.12)">
     <defs>
      <path id="DejaVuSans-54" d="M -19 4666 
L 3928 4666 
L 3928 4134 
L 2272 4134 
L 2272 0 
L 1638 0 
L 1638 4134 
L -19 4134 
L -19 4666 
z
" transform="scale(0.015625)"/>
      <path id="DejaVuSans-72" d="M 2631 2963 
Q 2534 3019 2420 3045 
Q 2306 3072 2169 3072 
Q 1681 3072 1420 2755 
Q 1159 2438 1159 1844 
L 1159 0 
L 581 0 
L 581 3500 
L 1159 3500 
L 1159 2956 
Q 1341 3275 1631 3429 
Q 1922 3584 2338 3584 
Q 2397 3584 2469 3576 
Q 2541 3569 2628 3553 
L 2631 2963 
z
" transform="scale(0.015625)"/>
      <path id="DejaVuSans-61" d="M 2194 1759 
Q 1497 1759 1228 1600 
Q 959 1441 959 1056 
Q 959 750 1161 570 
Q 1363 391 1709 391 
Q 2188 391 2477 730 
Q 2766 1069 2766 1631 
L 2766 1759 
L 2194 1759 
z
M 3341 1997 
L 3341 0 
L 2766 0 
L 2766 531 
Q 2569 213 2275 61 
Q 1981 -91 1556 -91 
Q 1019 -91 701 211 
Q 384 513 384 1019 
Q 384 1609 779 1909 
Q 1175 2209 1959 2209 
L 2766 2209 
L 2766 2266 
Q 2766 2663 2505 2880 
Q 2244 3097 1772 3097 
Q 1472 3097 1187 3025 
Q 903 2953 641 2809 
L 641 3341 
Q 956 3463 1253 3523 
Q 1550 3584 1831 3584 
Q 2591 3584 2966 3190 
Q 3341 2797 3341 1997 
z
" transform="scale(0.015625)"/>
      <path id="DejaVuSans-69" d="M 603 3500 
L 1178 3500 
L 1178 0 
L 603 0 
L 603 3500 
z
M 603 4863 
L 1178 4863 
L 1178 4134 
L 603 4134 
L 603 4863 
z
" transform="scale(0.015625)"/>
      <path id="DejaVuSans-6e" d="M 3513 2113 
L 3513 0 
L 2938 0 
L 2938 2094 
Q 2938 2591 2744 2837 
Q 2550 3084 2163 3084 
Q 1697 3084 1428 2787 
Q 1159 2491 1159 1978 
L 1159 0 
L 581 0 
L 581 3500 
L 1159 3500 
L 1159 2956 
Q 1366 3272 1645 3428 
Q 1925 3584 2291 3584 
Q 2894 3584 3203 3211 
Q 3513 2838 3513 2113 
z
" transform="scale(0.015625)"/>
      <path id="DejaVuSans-67" d="M 2906 1791 
Q 2906 2416 2648 2759 
Q 2391 3103 1925 3103 
Q 1463 3103 1205 2759 
Q 947 2416 947 1791 
Q 947 1169 1205 825 
Q 1463 481 1925 481 
Q 2391 481 2648 825 
Q 2906 1169 2906 1791 
z
M 3481 434 
Q 3481 -459 3084 -895 
Q 2688 -1331 1869 -1331 
Q 1566 -1331 1297 -1286 
Q 1028 -1241 775 -1147 
L 775 -588 
Q 1028 -725 1275 -790 
Q 1522 -856 1778 -856 
Q 2344 -856 2625 -561 
Q 2906 -266 2906 331 
L 2906 616 
Q 2728 306 2450 153 
Q 2172 0 1784 0 
Q 1141 0 747 490 
Q 353 981 353 1791 
Q 353 2603 747 3093 
Q 1141 3584 1784 3584 
Q 2172 3584 2450 3431 
Q 2728 3278 2906 2969 
L 2906 3500 
L 3481 3500 
L 3481 434 
z
" transform="scale(0.015625)"/>
      <path id="DejaVuSans-20" transform="scale(0.015625)"/>
      <path id="DejaVuSans-50" d="M 1259 4147 
L 1259 2394 
L 2053 2394 
Q 2494 2394 2734 2622 
Q 2975 2850 2975 3272 
Q 2975 3691 2734 3919 
Q 2494 4147 2053 4147 
L 1259 4147 
z
M 628 4666 
L 2053 4666 
Q 2838 4666 3239 4311 
Q 3641 3956 3641 3272 
Q 3641 2581 3239 2228 
Q 2838 1875 2053 1875 
L 1259 1875 
L 1259 0 
L 628 0 
L 628 4666 
z
" transform="scale(0.015625)"/>
      <path id="DejaVuSans-66" d="M 2375 4863 
L 2375 4384 
L 1825 4384 
Q 1516 4384 1395 4259 
Q 1275 4134 1275 3809 
L 1275 3500 
L 2222 3500 
L 2222 3053 
L 1275 3053 
L 1275 0 
L 697 0 
L 697 3053 
L 147 3053 
L 147 3500 
L 697 3500 
L 697 3744 
Q 697 4328 969 4595 
Q 1241 4863 1831 4863 
L 2375 4863 
z
" transform="scale(0.015625)"/>
      <path id="DejaVuSans-6d" d="M 3328 2828 
Q 3544 3216 3844 3400 
Q 4144 3584 4550 3584 
Q 5097 3584 5394 3201 
Q 5691 2819 5691 2113 
L 5691 0 
L 5113 0 
L 5113 2094 
Q 5113 2597 4934 2840 
Q 4756 3084 4391 3084 
Q 3944 3084 3684 2787 
Q 3425 2491 3425 1978 
L 3425 0 
L 2847 0 
L 2847 2094 
Q 2847 2600 2669 2842 
Q 2491 3084 2119 3084 
Q 1678 3084 1418 2786 
Q 1159 2488 1159 1978 
L 1159 0 
L 581 0 
L 581 3500 
L 1159 3500 
L 1159 2956 
Q 1356 3278 1631 3431 
Q 1906 3584 2284 3584 
Q 2666 3584 2933 3390 
Q 3200 3197 3328 2828 
z
" transform="scale(0.015625)"/>
      <path id="STIXNonUnicode-Italic-e23a" d="M 4294 800 
L 4301 800 
Q 5293 4070 5408 4378 
Q 5472 4538 5523 4614 
Q 5830 5088 6253 5088 
Q 6490 5088 6650 4931 
Q 6810 4774 6810 4550 
Q 6810 4378 6720 4272 
Q 6630 4166 6470 4166 
Q 6368 4166 6297 4224 
Q 6227 4282 6198 4349 
Q 6170 4416 6118 4473 
Q 6067 4531 6003 4531 
Q 5939 4531 5881 4508 
Q 5824 4486 5785 4457 
Q 5747 4429 5705 4371 
Q 5664 4314 5638 4275 
Q 5613 4237 5584 4163 
Q 5555 4090 5545 4058 
Q 5536 4026 5510 3952 
Q 5485 3878 5485 3866 
L 4262 -154 
L 4134 -154 
Q 3078 1280 2483 2893 
L 2470 2893 
Q 2406 2579 2358 2361 
Q 2310 2144 2214 1792 
Q 2118 1440 2028 1190 
Q 1939 941 1804 653 
Q 1670 365 1529 185 
Q 1389 6 1203 -115 
Q 1018 -237 813 -237 
Q 576 -237 416 -80 
Q 256 77 256 301 
Q 256 474 345 579 
Q 435 685 595 685 
Q 698 685 768 627 
Q 838 570 867 502 
Q 896 435 947 377 
Q 998 320 1062 320 
Q 1222 320 1369 480 
Q 1517 640 1638 928 
Q 1760 1216 1862 1542 
Q 1965 1869 2057 2288 
Q 2150 2707 2214 3033 
Q 2278 3360 2348 3741 
Q 2419 4122 2458 4294 
L 2630 4294 
Q 2682 4166 2874 3680 
Q 3066 3194 3142 3008 
Q 3219 2822 3392 2422 
Q 3565 2022 3683 1798 
Q 3802 1574 3968 1292 
Q 4134 1011 4294 800 
z
" transform="scale(0.015625)"/>
     </defs>
     <use xlink:href="#DejaVuSans-54" transform="translate(0 0.5)"/>
     <use xlink:href="#DejaVuSans-72" transform="translate(61.083984 0.5)"/>
     <use xlink:href="#DejaVuSans-61" transform="translate(102.197266 0.5)"/>
     <use xlink:href="#DejaVuSans-69" transform="translate(163.476562 0.5)"/>
     <use xlink:href="#DejaVuSans-6e" transform="translate(191.259766 0.5)"/>
     <use xlink:href="#DejaVuSans-69" transform="translate(254.638672 0.5)"/>
     <use xlink:href="#DejaVuSans-6e" transform="translate(282.421875 0.5)"/>
     <use xlink:href="#DejaVuSans-67" transform="translate(345.800781 0.5)"/>
     <use xlink:href="#DejaVuSans-20" transform="translate(409.277344 0.5)"/>
     <use xlink:href="#DejaVuSans-50" transform="translate(441.064453 0.5)"/>
     <use xlink:href="#DejaVuSans-65" transform="translate(501.367188 0.5)"/>
     <use xlink:href="#DejaVuSans-72" transform="translate(562.890625 0.5)"/>
     <use xlink:href="#DejaVuSans-66" transform="translate(604.003906 0.5)"/>
     <use xlink:href="#DejaVuSans-6f" transform="translate(639.208984 0.5)"/>
     <use xlink:href="#DejaVuSans-72" transform="translate(700.390625 0.5)"/>
     <use xlink:href="#DejaVuSans-6d" transform="translate(741.503906 0.5)"/>
     <use xlink:href="#DejaVuSans-61" transform="translate(838.916016 0.5)"/>
     <use xlink:href="#DejaVuSans-6e" transform="translate(900.195312 0.5)"/>
     <use xlink:href="#DejaVuSans-63" transform="translate(963.574219 0.5)"/>
     <use xlink:href="#DejaVuSans-65" transform="translate(1018.554688 0.5)"/>
     <use xlink:href="#DejaVuSans-20" transform="translate(1080.078125 0.5)"/>
     <use xlink:href="#STIXNonUnicode-Italic-e23a" transform="translate(1111.865234 0.5)"/>
    </g>
   </g>
  </g>
  <g id="axes_2">
   <g id="matplotlib.axis_3">
    <g id="ytick_6">
     <g id="line2d_13">
      <path d="M 43.78125 269.979391 
L 400.90125 269.979391 
" clip-path="url(#p82a9c1c07f)" style="fill: none; stroke: #b0b0b0; stroke-width: 0.8; stroke-linecap: square"/>
     </g>
     <g id="line2d_14">
      <defs>
       <path id="mfb497af0af" d="M 0 0 
L 3.5 0 
" style="stroke: #000000; stroke-width: 0.8"/>
      </defs>
      <g>
       <use xlink:href="#mfb497af0af" x="400.90125" y="269.979391" style="stroke: #000000; stroke-width: 0.8"/>
      </g>
     </g>
     <g id="text_15">
      <!-- 0.50 -->
      <g transform="translate(407.90125 273.77861) scale(0.1 -0.1)">
       <use xlink:href="#DejaVuSans-30"/>
       <use xlink:href="#DejaVuSans-2e" x="63.623047"/>
       <use xlink:href="#DejaVuSans-35" x="95.410156"/>
       <use xlink:href="#DejaVuSans-30" x="159.033203"/>
      </g>
     </g>
    </g>
    <g id="ytick_7">
     <g id="line2d_15">
      <path d="M 43.78125 239.994265 
L 400.90125 239.994265 
" clip-path="url(#p82a9c1c07f)" style="fill: none; stroke: #b0b0b0; stroke-width: 0.8; stroke-linecap: square"/>
     </g>
     <g id="line2d_16">
      <g>
       <use xlink:href="#mfb497af0af" x="400.90125" y="239.994265" style="stroke: #000000; stroke-width: 0.8"/>
      </g>
     </g>
     <g id="text_16">
      <!-- 0.55 -->
      <g transform="translate(407.90125 243.793483) scale(0.1 -0.1)">
       <use xlink:href="#DejaVuSans-30"/>
       <use xlink:href="#DejaVuSans-2e" x="63.623047"/>
       <use xlink:href="#DejaVuSans-35" x="95.410156"/>
       <use xlink:href="#DejaVuSans-35" x="159.033203"/>
      </g>
     </g>
    </g>
    <g id="ytick_8">
     <g id="line2d_17">
      <path d="M 43.78125 210.009138 
L 400.90125 210.009138 
" clip-path="url(#p82a9c1c07f)" style="fill: none; stroke: #b0b0b0; stroke-width: 0.8; stroke-linecap: square"/>
     </g>
     <g id="line2d_18">
      <g>
       <use xlink:href="#mfb497af0af" x="400.90125" y="210.009138" style="stroke: #000000; stroke-width: 0.8"/>
      </g>
     </g>
     <g id="text_17">
      <!-- 0.60 -->
      <g transform="translate(407.90125 213.808357) scale(0.1 -0.1)">
       <use xlink:href="#DejaVuSans-30"/>
       <use xlink:href="#DejaVuSans-2e" x="63.623047"/>
       <use xlink:href="#DejaVuSans-36" x="95.410156"/>
       <use xlink:href="#DejaVuSans-30" x="159.033203"/>
      </g>
     </g>
    </g>
    <g id="ytick_9">
     <g id="line2d_19">
      <path d="M 43.78125 180.024012 
L 400.90125 180.024012 
" clip-path="url(#p82a9c1c07f)" style="fill: none; stroke: #b0b0b0; stroke-width: 0.8; stroke-linecap: square"/>
     </g>
     <g id="line2d_20">
      <g>
       <use xlink:href="#mfb497af0af" x="400.90125" y="180.024012" style="stroke: #000000; stroke-width: 0.8"/>
      </g>
     </g>
     <g id="text_18">
      <!-- 0.65 -->
      <g transform="translate(407.90125 183.823231) scale(0.1 -0.1)">
       <use xlink:href="#DejaVuSans-30"/>
       <use xlink:href="#DejaVuSans-2e" x="63.623047"/>
       <use xlink:href="#DejaVuSans-36" x="95.410156"/>
       <use xlink:href="#DejaVuSans-35" x="159.033203"/>
      </g>
     </g>
    </g>
    <g id="ytick_10">
     <g id="line2d_21">
      <path d="M 43.78125 150.038885 
L 400.90125 150.038885 
" clip-path="url(#p82a9c1c07f)" style="fill: none; stroke: #b0b0b0; stroke-width: 0.8; stroke-linecap: square"/>
     </g>
     <g id="line2d_22">
      <g>
       <use xlink:href="#mfb497af0af" x="400.90125" y="150.038885" style="stroke: #000000; stroke-width: 0.8"/>
      </g>
     </g>
     <g id="text_19">
      <!-- 0.70 -->
      <g transform="translate(407.90125 153.838104) scale(0.1 -0.1)">
       <use xlink:href="#DejaVuSans-30"/>
       <use xlink:href="#DejaVuSans-2e" x="63.623047"/>
       <use xlink:href="#DejaVuSans-37" x="95.410156"/>
       <use xlink:href="#DejaVuSans-30" x="159.033203"/>
      </g>
     </g>
    </g>
    <g id="ytick_11">
     <g id="line2d_23">
      <path d="M 43.78125 120.053759 
L 400.90125 120.053759 
" clip-path="url(#p82a9c1c07f)" style="fill: none; stroke: #b0b0b0; stroke-width: 0.8; stroke-linecap: square"/>
     </g>
     <g id="line2d_24">
      <g>
       <use xlink:href="#mfb497af0af" x="400.90125" y="120.053759" style="stroke: #000000; stroke-width: 0.8"/>
      </g>
     </g>
     <g id="text_20">
      <!-- 0.75 -->
      <g transform="translate(407.90125 123.852978) scale(0.1 -0.1)">
       <use xlink:href="#DejaVuSans-30"/>
       <use xlink:href="#DejaVuSans-2e" x="63.623047"/>
       <use xlink:href="#DejaVuSans-37" x="95.410156"/>
       <use xlink:href="#DejaVuSans-35" x="159.033203"/>
      </g>
     </g>
    </g>
    <g id="ytick_12">
     <g id="line2d_25">
      <path d="M 43.78125 90.068633 
L 400.90125 90.068633 
" clip-path="url(#p82a9c1c07f)" style="fill: none; stroke: #b0b0b0; stroke-width: 0.8; stroke-linecap: square"/>
     </g>
     <g id="line2d_26">
      <g>
       <use xlink:href="#mfb497af0af" x="400.90125" y="90.068633" style="stroke: #000000; stroke-width: 0.8"/>
      </g>
     </g>
     <g id="text_21">
      <!-- 0.80 -->
      <g transform="translate(407.90125 93.867851) scale(0.1 -0.1)">
       <defs>
        <path id="DejaVuSans-38" d="M 2034 2216 
Q 1584 2216 1326 1975 
Q 1069 1734 1069 1313 
Q 1069 891 1326 650 
Q 1584 409 2034 409 
Q 2484 409 2743 651 
Q 3003 894 3003 1313 
Q 3003 1734 2745 1975 
Q 2488 2216 2034 2216 
z
M 1403 2484 
Q 997 2584 770 2862 
Q 544 3141 544 3541 
Q 544 4100 942 4425 
Q 1341 4750 2034 4750 
Q 2731 4750 3128 4425 
Q 3525 4100 3525 3541 
Q 3525 3141 3298 2862 
Q 3072 2584 2669 2484 
Q 3125 2378 3379 2068 
Q 3634 1759 3634 1313 
Q 3634 634 3220 271 
Q 2806 -91 2034 -91 
Q 1263 -91 848 271 
Q 434 634 434 1313 
Q 434 1759 690 2068 
Q 947 2378 1403 2484 
z
M 1172 3481 
Q 1172 3119 1398 2916 
Q 1625 2713 2034 2713 
Q 2441 2713 2670 2916 
Q 2900 3119 2900 3481 
Q 2900 3844 2670 4047 
Q 2441 4250 2034 4250 
Q 1625 4250 1398 4047 
Q 1172 3844 1172 3481 
z
" transform="scale(0.015625)"/>
       </defs>
       <use xlink:href="#DejaVuSans-30"/>
       <use xlink:href="#DejaVuSans-2e" x="63.623047"/>
       <use xlink:href="#DejaVuSans-38" x="95.410156"/>
       <use xlink:href="#DejaVuSans-30" x="159.033203"/>
      </g>
     </g>
    </g>
    <g id="ytick_13">
     <g id="line2d_27">
      <path d="M 43.78125 60.083506 
L 400.90125 60.083506 
" clip-path="url(#p82a9c1c07f)" style="fill: none; stroke: #b0b0b0; stroke-width: 0.8; stroke-linecap: square"/>
     </g>
     <g id="line2d_28">
      <g>
       <use xlink:href="#mfb497af0af" x="400.90125" y="60.083506" style="stroke: #000000; stroke-width: 0.8"/>
      </g>
     </g>
     <g id="text_22">
      <!-- 0.85 -->
      <g transform="translate(407.90125 63.882725) scale(0.1 -0.1)">
       <use xlink:href="#DejaVuSans-30"/>
       <use xlink:href="#DejaVuSans-2e" x="63.623047"/>
       <use xlink:href="#DejaVuSans-38" x="95.410156"/>
       <use xlink:href="#DejaVuSans-35" x="159.033203"/>
      </g>
     </g>
    </g>
    <g id="ytick_14">
     <g id="line2d_29">
      <path d="M 43.78125 30.09838 
L 400.90125 30.09838 
" clip-path="url(#p82a9c1c07f)" style="fill: none; stroke: #b0b0b0; stroke-width: 0.8; stroke-linecap: square"/>
     </g>
     <g id="line2d_30">
      <g>
       <use xlink:href="#mfb497af0af" x="400.90125" y="30.09838" style="stroke: #000000; stroke-width: 0.8"/>
      </g>
     </g>
     <g id="text_23">
      <!-- 0.90 -->
      <g transform="translate(407.90125 33.897599) scale(0.1 -0.1)">
       <defs>
        <path id="DejaVuSans-39" d="M 703 97 
L 703 672 
Q 941 559 1184 500 
Q 1428 441 1663 441 
Q 2288 441 2617 861 
Q 2947 1281 2994 2138 
Q 2813 1869 2534 1725 
Q 2256 1581 1919 1581 
Q 1219 1581 811 2004 
Q 403 2428 403 3163 
Q 403 3881 828 4315 
Q 1253 4750 1959 4750 
Q 2769 4750 3195 4129 
Q 3622 3509 3622 2328 
Q 3622 1225 3098 567 
Q 2575 -91 1691 -91 
Q 1453 -91 1209 -44 
Q 966 3 703 97 
z
M 1959 2075 
Q 2384 2075 2632 2365 
Q 2881 2656 2881 3163 
Q 2881 3666 2632 3958 
Q 2384 4250 1959 4250 
Q 1534 4250 1286 3958 
Q 1038 3666 1038 3163 
Q 1038 2656 1286 2365 
Q 1534 2075 1959 2075 
z
" transform="scale(0.015625)"/>
       </defs>
       <use xlink:href="#DejaVuSans-30"/>
       <use xlink:href="#DejaVuSans-2e" x="63.623047"/>
       <use xlink:href="#DejaVuSans-39" x="95.410156"/>
       <use xlink:href="#DejaVuSans-30" x="159.033203"/>
      </g>
     </g>
    </g>
    <g id="text_24">
     <!-- accuracy -->
     <g transform="translate(441.765312 178.415375) rotate(-90) scale(0.1 -0.1)">
      <defs>
       <path id="DejaVuSans-75" d="M 544 1381 
L 544 3500 
L 1119 3500 
L 1119 1403 
Q 1119 906 1312 657 
Q 1506 409 1894 409 
Q 2359 409 2629 706 
Q 2900 1003 2900 1516 
L 2900 3500 
L 3475 3500 
L 3475 0 
L 2900 0 
L 2900 538 
Q 2691 219 2414 64 
Q 2138 -91 1772 -91 
Q 1169 -91 856 284 
Q 544 659 544 1381 
z
M 1991 3584 
L 1991 3584 
z
" transform="scale(0.015625)"/>
       <path id="DejaVuSans-79" d="M 2059 -325 
Q 1816 -950 1584 -1140 
Q 1353 -1331 966 -1331 
L 506 -1331 
L 506 -850 
L 844 -850 
Q 1081 -850 1212 -737 
Q 1344 -625 1503 -206 
L 1606 56 
L 191 3500 
L 800 3500 
L 1894 763 
L 2988 3500 
L 3597 3500 
L 2059 -325 
z
" transform="scale(0.015625)"/>
      </defs>
      <use xlink:href="#DejaVuSans-61"/>
      <use xlink:href="#DejaVuSans-63" x="61.279297"/>
      <use xlink:href="#DejaVuSans-63" x="116.259766"/>
      <use xlink:href="#DejaVuSans-75" x="171.240234"/>
      <use xlink:href="#DejaVuSans-72" x="234.619141"/>
      <use xlink:href="#DejaVuSans-61" x="275.732422"/>
      <use xlink:href="#DejaVuSans-63" x="337.011719"/>
      <use xlink:href="#DejaVuSans-79" x="391.992188"/>
     </g>
    </g>
   </g>
   <g id="line2d_31">
    <path d="M 60.013977 269.379689 
L 87.990221 269.379689 
L 88.640831 268.779986 
L 89.291441 223.802296 
L 89.942052 194.416873 
L 90.592662 156.635613 
L 91.243272 129.649 
L 93.845713 60.683209 
L 94.496324 56.485291 
L 95.797544 44.49124 
L 97.098765 38.494215 
L 97.749375 38.494215 
L 98.399986 40.893025 
L 99.050596 39.093918 
L 99.701206 40.293323 
L 100.351817 39.093918 
L 101.002427 39.093918 
L 101.653037 40.293323 
L 102.303648 40.293323 
L 102.954258 37.894513 
L 103.604868 37.894513 
L 104.255478 38.494215 
L 104.906089 39.69362 
L 105.556699 39.093918 
L 106.207309 37.894513 
L 106.85792 39.093918 
L 107.50853 40.893025 
L 108.15914 41.492728 
L 108.809751 41.492728 
L 109.460361 42.09243 
L 110.110971 42.09243 
L 110.761582 41.492728 
L 111.412192 43.291835 
L 112.062802 43.291835 
L 112.713413 42.692133 
L 113.364023 45.090943 
L 114.014633 45.690646 
L 115.315854 48.089456 
L 115.966464 48.089456 
L 116.617074 46.890051 
L 117.267685 46.890051 
L 117.918295 47.489753 
L 118.568905 47.489753 
L 119.219516 48.089456 
L 124.424398 48.089456 
L 125.075008 47.489753 
L 125.725619 47.489753 
L 126.376229 46.290348 
L 127.67745 45.090943 
L 128.32806 45.690646 
L 128.97867 44.49124 
L 129.629281 44.49124 
L 130.279891 43.891538 
L 130.930501 43.891538 
L 131.581112 43.291835 
L 132.231722 43.291835 
L 134.183553 41.492728 
L 135.484773 41.492728 
L 136.135384 42.09243 
L 136.785994 42.09243 
L 137.436604 40.893025 
L 138.087215 41.492728 
L 141.990877 41.492728 
L 142.641487 40.893025 
L 143.292097 40.893025 
L 143.942707 41.492728 
L 144.593318 40.893025 
L 145.243928 40.893025 
L 145.894538 41.492728 
L 146.545149 40.893025 
L 147.195759 41.492728 
L 147.846369 40.893025 
L 149.14759 42.09243 
L 150.448811 40.893025 
L 151.099421 42.09243 
L 151.750031 42.09243 
L 152.400642 44.49124 
L 153.051252 44.49124 
L 153.701862 45.090943 
L 162.159796 45.090943 
L 163.461017 43.891538 
L 164.111627 42.692133 
L 164.762237 42.09243 
L 165.412848 42.09243 
L 166.714068 40.893025 
L 167.364679 41.492728 
L 168.665899 41.492728 
L 169.31651 40.893025 
L 169.96712 40.893025 
L 170.61773 41.492728 
L 171.268341 41.492728 
L 171.918951 40.893025 
L 174.521392 40.893025 
L 175.172002 41.492728 
L 175.822613 41.492728 
L 176.473223 40.893025 
L 177.123833 39.69362 
L 177.774444 39.093918 
L 178.425054 39.69362 
L 179.075664 39.69362 
L 180.376885 38.494215 
L 181.678106 38.494215 
L 182.328716 36.695108 
L 182.979326 36.695108 
L 183.629936 36.095405 
L 184.280547 36.095405 
L 184.931157 35.495703 
L 185.581767 36.095405 
L 187.533598 36.095405 
L 188.184209 34.896 
L 188.834819 35.495703 
L 189.485429 34.896 
L 192.087871 34.896 
L 192.738481 35.495703 
L 193.389091 35.495703 
L 194.039701 36.095405 
L 195.991532 36.095405 
L 196.642143 35.495703 
L 197.292753 35.495703 
L 197.943363 36.695108 
L 198.593974 37.29481 
L 199.244584 36.695108 
L 199.895194 37.894513 
L 200.545805 38.494215 
L 201.196415 38.494215 
L 201.847025 39.69362 
L 203.148246 39.69362 
L 203.798856 40.293323 
L 204.449466 40.293323 
L 205.100077 39.69362 
L 207.702518 39.69362 
L 208.353128 40.893025 
L 209.654349 40.893025 
L 210.304959 39.69362 
L 213.558011 39.69362 
L 214.208621 39.093918 
L 215.509842 39.093918 
L 216.160452 39.69362 
L 219.413504 39.69362 
L 220.064114 40.293323 
L 223.317165 40.293323 
L 223.967776 39.69362 
L 224.618386 38.494215 
L 230.473879 38.494215 
L 231.124489 39.69362 
L 231.7751 39.093918 
L 242.184865 39.093918 
L 242.835475 38.494215 
L 268.209277 38.494215 
L 268.859887 37.894513 
L 330.017257 37.894513 
L 330.667867 37.29481 
L 384.668523 37.29481 
L 384.668523 37.29481 
" clip-path="url(#p82a9c1c07f)" style="fill: none; stroke-dasharray: 5.55,2.4; stroke-dashoffset: 0; stroke: #2f6c8e; stroke-width: 1.5"/>
   </g>
   <g id="line2d_32">
    <path d="M 60.013977 265.661533 
L 87.990221 265.661533 
L 88.640831 265.541592 
L 89.291441 251.508553 
L 90.592662 214.446937 
L 91.243272 205.091578 
L 91.893883 207.130566 
L 93.845713 258.704984 
L 94.496324 266.261235 
L 95.797544 272.378201 
L 96.448155 271.898439 
L 97.098765 274.41719 
L 97.749375 275.976416 
L 98.399986 276.816 
L 99.050596 276.456178 
L 99.701206 275.496654 
L 100.351817 275.496654 
L 101.002427 275.136833 
L 101.653037 273.577606 
L 102.303648 273.577606 
L 103.604868 272.258261 
L 105.556699 273.817487 
L 106.207309 272.977904 
L 106.85792 271.178796 
L 107.50853 271.178796 
L 108.809751 272.01838 
L 110.110971 271.178796 
L 110.761582 271.058856 
L 111.412192 271.418677 
L 112.062802 271.418677 
L 112.713413 271.178796 
L 113.364023 271.178796 
L 114.014633 271.058856 
L 115.315854 269.73951 
L 116.617074 268.420165 
L 117.267685 267.700522 
L 118.568905 266.980879 
L 119.219516 266.141295 
L 120.520736 265.06183 
L 121.171347 264.462128 
L 121.821957 264.102306 
L 122.472567 263.502604 
L 123.123177 262.54308 
L 126.376229 260.863913 
L 127.026839 259.904389 
L 127.67745 259.664508 
L 128.97867 258.465103 
L 129.629281 257.505579 
L 131.581112 255.946352 
L 132.231722 254.746947 
L 132.882332 254.387125 
L 133.532942 253.667482 
L 134.834163 252.947839 
L 135.484773 251.988315 
L 136.135384 251.388613 
L 138.087215 248.869862 
L 138.737825 248.3901 
L 139.388435 248.27016 
L 140.039046 247.070755 
L 140.689656 246.830874 
L 141.340266 245.751409 
L 143.292097 243.832361 
L 143.942707 243.59248 
L 146.545149 240.833848 
L 147.195759 240.953789 
L 148.49698 239.394562 
L 149.14759 239.394562 
L 151.099421 237.355574 
L 151.750031 236.875812 
L 152.400642 236.036228 
L 153.051252 236.036228 
L 154.352472 235.076704 
L 155.653693 233.517477 
L 156.304303 233.037715 
L 156.954914 232.318072 
L 157.605524 232.078191 
L 159.557355 229.559441 
L 160.207965 229.079679 
L 161.509186 227.280571 
L 162.159796 227.160631 
L 162.810406 226.560928 
L 163.461017 225.721345 
L 164.111627 224.52194 
L 164.762237 223.562415 
L 165.412848 223.442475 
L 166.714068 222.003189 
L 167.364679 221.763308 
L 168.015289 220.683843 
L 169.31651 220.204081 
L 170.61773 218.045152 
L 171.918951 217.085628 
L 172.569561 216.126104 
L 173.220171 216.246045 
L 173.870782 215.646342 
L 175.172002 213.727294 
L 175.822613 213.847235 
L 176.473223 213.607353 
L 177.123833 212.76777 
L 179.075664 211.208543 
L 179.726275 210.249019 
L 180.376885 209.649317 
L 181.027495 209.529376 
L 181.678106 209.049614 
L 182.328716 208.09009 
L 182.979326 208.09009 
L 183.629936 208.329971 
L 184.931157 206.650804 
L 186.232378 205.69128 
L 186.882988 205.451399 
L 188.184209 205.211518 
L 190.13604 204.012113 
L 190.78665 203.29247 
L 192.738481 201.973124 
L 194.039701 201.733243 
L 194.690312 201.133541 
L 195.340922 200.89366 
L 197.943363 198.854671 
L 198.593974 198.135028 
L 199.244584 197.655266 
L 199.895194 196.935623 
L 200.545805 196.695742 
L 201.196415 196.935623 
L 201.847025 196.695742 
L 202.497635 195.976099 
L 203.148246 195.736218 
L 204.449466 194.656754 
L 205.100077 194.656754 
L 205.750687 194.416873 
L 207.051908 194.176992 
L 207.702518 193.937111 
L 208.353128 193.457349 
L 209.003739 192.737706 
L 210.304959 192.497824 
L 211.60618 192.018062 
L 212.25679 191.658241 
L 213.558011 191.41836 
L 214.208621 191.178479 
L 214.859231 190.818657 
L 215.509842 189.979074 
L 216.160452 190.099014 
L 216.811062 190.099014 
L 217.461673 189.979074 
L 218.112283 189.979074 
L 218.762893 189.859133 
L 219.413504 189.13949 
L 220.064114 189.13949 
L 220.714724 188.899609 
L 222.015945 188.659728 
L 222.666555 188.659728 
L 223.317165 188.539788 
L 225.268996 187.580264 
L 225.919607 187.340383 
L 227.220827 187.100502 
L 227.871438 186.860621 
L 229.172658 186.62074 
L 231.124489 185.901097 
L 231.7751 185.901097 
L 232.42571 185.781156 
L 233.07632 185.541275 
L 234.377541 184.941573 
L 235.678761 184.701692 
L 236.329372 184.701692 
L 236.979982 184.581751 
L 238.281203 184.581751 
L 239.582423 184.34187 
L 240.883644 183.862108 
L 241.534254 183.742168 
L 242.184865 183.382346 
L 242.835475 183.262406 
L 244.136695 182.422822 
L 244.787306 182.422822 
L 245.437916 182.182941 
L 246.088526 181.823119 
L 246.739137 181.823119 
L 247.389747 181.703179 
L 248.040357 181.463298 
L 250.642799 181.463298 
L 251.293409 181.343357 
L 251.944019 181.343357 
L 252.594629 181.223417 
L 253.24524 181.223417 
L 253.89585 181.343357 
L 255.197071 181.343357 
L 255.847681 181.223417 
L 256.498291 181.223417 
L 257.799512 180.983536 
L 258.450122 180.983536 
L 259.100733 180.863595 
L 259.751343 180.863595 
L 260.401953 180.743655 
L 261.052564 180.743655 
L 261.703174 180.623714 
L 262.353784 180.623714 
L 263.004394 180.383833 
L 263.655005 180.383833 
L 264.956225 180.143952 
L 266.257446 180.143952 
L 266.908056 179.904071 
L 267.558667 179.904071 
L 268.209277 179.784131 
L 269.510498 179.784131 
L 270.161108 179.424309 
L 270.811718 179.304369 
L 271.462329 179.064488 
L 272.112939 179.064488 
L 272.763549 178.824607 
L 273.414159 178.704666 
L 274.71538 178.704666 
L 275.36599 178.584726 
L 276.016601 178.584726 
L 276.667211 178.464785 
L 279.269652 178.464785 
L 279.920263 178.344845 
L 281.872094 178.344845 
L 282.522704 178.224904 
L 285.125145 178.224904 
L 285.775755 177.985023 
L 287.727586 177.985023 
L 288.378197 177.865083 
L 292.281858 177.865083 
L 292.932469 177.745142 
L 293.583079 177.505261 
L 294.233689 177.505261 
L 294.8843 177.385321 
L 295.53491 177.385321 
L 296.18552 177.14544 
L 299.438572 177.14544 
L 300.089182 177.025499 
L 300.739793 176.785618 
L 302.041013 176.785618 
L 303.342234 176.545737 
L 303.992844 176.545737 
L 304.643454 176.425797 
L 305.294065 176.185916 
L 307.245896 176.185916 
L 307.896506 176.065975 
L 309.197727 176.065975 
L 309.848337 175.946035 
L 311.149558 175.946035 
L 311.800168 175.826094 
L 312.450778 175.826094 
L 313.101388 175.706154 
L 314.402609 175.706154 
L 315.053219 175.586213 
L 318.956881 175.586213 
L 319.607492 175.466273 
L 320.908712 175.466273 
L 321.559323 175.346332 
L 324.161764 175.346332 
L 325.462984 175.106451 
L 326.764205 175.106451 
L 327.414815 174.986511 
L 328.065426 174.986511 
L 328.716036 174.86657 
L 335.872749 174.86657 
L 336.52336 174.74663 
L 339.776411 174.74663 
L 341.077632 174.506749 
L 343.680073 174.506749 
L 344.330683 174.386808 
L 344.981294 174.386808 
L 345.631904 174.266868 
L 346.933125 174.266868 
L 347.583735 174.146927 
L 350.186176 174.146927 
L 350.836787 174.026987 
L 352.138007 174.026987 
L 352.788617 173.787106 
L 356.041669 173.787106 
L 356.692279 173.667165 
L 357.9935 173.667165 
L 358.64411 173.547225 
L 359.294721 173.547225 
L 359.945331 173.427284 
L 364.499603 173.427284 
L 365.150213 173.307344 
L 369.704486 173.307344 
L 370.355096 173.187403 
L 371.005706 173.187403 
L 371.656316 173.067463 
L 372.306927 173.067463 
L 372.957537 172.947522 
L 373.608147 172.947522 
L 374.258758 172.827582 
L 374.909368 172.827582 
L 377.511809 172.34782 
L 378.16242 172.34782 
L 378.81303 172.227879 
L 379.46364 172.227879 
L 380.764861 171.987998 
L 384.668523 171.987998 
L 384.668523 171.987998 
" clip-path="url(#p82a9c1c07f)" style="fill: none; stroke-dasharray: 1.5,2.475; stroke-dashoffset: 0; stroke: #44bf70; stroke-width: 1.5"/>
   </g>
   <g id="patch_7">
    <path d="M 43.78125 288.912 
L 43.78125 22.8 
" style="fill: none; stroke: #000000; stroke-width: 0.8; stroke-linejoin: miter; stroke-linecap: square"/>
   </g>
   <g id="patch_8">
    <path d="M 400.90125 288.912 
L 400.90125 22.8 
" style="fill: none; stroke: #000000; stroke-width: 0.8; stroke-linejoin: miter; stroke-linecap: square"/>
   </g>
   <g id="patch_9">
    <path d="M 43.78125 288.912 
L 400.90125 288.912 
" style="fill: none; stroke: #000000; stroke-width: 0.8; stroke-linejoin: miter; stroke-linecap: square"/>
   </g>
   <g id="patch_10">
    <path d="M 43.78125 22.8 
L 400.90125 22.8 
" style="fill: none; stroke: #000000; stroke-width: 0.8; stroke-linejoin: miter; stroke-linecap: square"/>
   </g>
  </g>
  <g id="legend_1">
   <g id="patch_11">
    <path d="M 75.43125 346.12 
L 357.73125 346.12 
Q 359.73125 346.12 359.73125 344.12 
L 359.73125 330.421562 
Q 359.73125 328.421562 357.73125 328.421562 
L 75.43125 328.421562 
Q 73.43125 328.421562 73.43125 330.421562 
L 73.43125 344.12 
Q 73.43125 346.12 75.43125 346.12 
z
" style="fill: #ffffff; opacity: 0.8; stroke: #cccccc; stroke-linejoin: miter"/>
   </g>
   <g id="line2d_33">
    <path d="M 77.43125 336.52 
L 87.43125 336.52 
L 97.43125 336.52 
" style="fill: none; stroke: #440154; stroke-width: 1.5; stroke-linecap: square"/>
   </g>
   <g id="text_25">
    <!-- $\mathbf{V}_o$ loss -->
    <g transform="translate(105.43125 340.02) scale(0.1 -0.1)">
     <defs>
      <path id="DejaVuSerif-Bold-56" d="M 5056 4666 
L 5056 4288 
L 4666 4288 
L 2906 0 
L 2163 0 
L 403 4288 
L -38 4288 
L -38 4666 
L 2150 4666 
L 2150 4288 
L 1697 4288 
L 2956 1197 
L 4225 4288 
L 3669 4288 
L 3669 4666 
L 5056 4666 
z
" transform="scale(0.015625)"/>
      <path id="DejaVuSerif-Italic-6f" d="M 1644 219 
Q 2106 219 2414 584 
Q 2722 950 2859 1663 
Q 2922 1988 2922 2241 
Q 2922 2541 2834 2738 
Q 2669 3103 2206 3103 
Q 1744 3103 1436 2739 
Q 1128 2375 991 1663 
Q 928 1338 928 1088 
Q 928 784 1019 584 
Q 1184 219 1644 219 
z
M 1584 -91 
Q 859 -91 513 388 
Q 272 722 272 1203 
Q 272 1419 319 1663 
Q 472 2456 1005 2934 
Q 1538 3413 2266 3413 
Q 2994 3413 3341 2934 
Q 3578 2603 3578 2122 
Q 3578 1906 3531 1663 
Q 3378 869 2845 389 
Q 2313 -91 1584 -91 
z
" transform="scale(0.015625)"/>
     </defs>
     <use xlink:href="#DejaVuSerif-Bold-56" transform="translate(0 0.015625)"/>
     <use xlink:href="#DejaVuSerif-Italic-6f" transform="translate(78.49625 -15.55625) scale(0.7)"/>
     <use xlink:href="#DejaVuSans-20" transform="translate(123.235117 0.015625)"/>
     <use xlink:href="#DejaVuSans-6c" transform="translate(155.022227 0.015625)"/>
     <use xlink:href="#DejaVuSans-6f" transform="translate(182.80543 0.015625)"/>
     <use xlink:href="#DejaVuSans-73" transform="translate(243.98707 0.015625)"/>
     <use xlink:href="#DejaVuSans-73" transform="translate(296.08668 0.015625)"/>
    </g>
   </g>
   <g id="line2d_34">
    <path d="M 160.33125 336.52 
L 170.33125 336.52 
L 180.33125 336.52 
" style="fill: none; stroke-dasharray: 5.55,2.4; stroke-dashoffset: 0; stroke: #2f6c8e; stroke-width: 1.5"/>
   </g>
   <g id="text_26">
    <!-- $\mathbf{V}_o$ accuracy -->
    <g transform="translate(188.33125 340.02) scale(0.1 -0.1)">
     <use xlink:href="#DejaVuSerif-Bold-56" transform="translate(0 0.09375)"/>
     <use xlink:href="#DejaVuSerif-Italic-6f" transform="translate(78.49625 -15.478125) scale(0.7)"/>
     <use xlink:href="#DejaVuSans-20" transform="translate(123.235117 0.09375)"/>
     <use xlink:href="#DejaVuSans-61" transform="translate(155.022227 0.09375)"/>
     <use xlink:href="#DejaVuSans-63" transform="translate(216.301523 0.09375)"/>
     <use xlink:href="#DejaVuSans-63" transform="translate(271.281992 0.09375)"/>
     <use xlink:href="#DejaVuSans-75" transform="translate(326.262461 0.09375)"/>
     <use xlink:href="#DejaVuSans-72" transform="translate(389.641367 0.09375)"/>
     <use xlink:href="#DejaVuSans-61" transform="translate(430.754648 0.09375)"/>
     <use xlink:href="#DejaVuSans-63" transform="translate(492.033945 0.09375)"/>
     <use xlink:href="#DejaVuSans-79" transform="translate(547.014414 0.09375)"/>
    </g>
   </g>
   <g id="line2d_35">
    <path d="M 269.03125 336.52 
L 279.03125 336.52 
L 289.03125 336.52 
" style="fill: none; stroke-dasharray: 1.5,2.475; stroke-dashoffset: 0; stroke: #44bf70; stroke-width: 1.5"/>
   </g>
   <g id="text_27">
    <!-- $\mathbf{V}_i$ accuracy -->
    <g transform="translate(297.03125 340.02) scale(0.1 -0.1)">
     <defs>
      <path id="DejaVuSerif-Italic-69" d="M 1009 4353 
Q 1038 4497 1163 4603 
Q 1288 4709 1434 4709 
Q 1578 4709 1663 4603 
Q 1728 4522 1728 4422 
Q 1728 4388 1719 4353 
Q 1691 4206 1567 4103 
Q 1444 4000 1297 4000 
Q 1150 4000 1066 4103 
Q 1003 4181 1003 4281 
Q 1003 4316 1009 4353 
z
M 963 331 
L 1506 331 
L 1444 0 
L 325 0 
L 903 2988 
L 353 2988 
L 419 3322 
L 1544 3322 
L 963 331 
z
" transform="scale(0.015625)"/>
     </defs>
     <use xlink:href="#DejaVuSerif-Bold-56" transform="translate(0 0.09375)"/>
     <use xlink:href="#DejaVuSerif-Italic-69" transform="translate(78.49625 -15.478125) scale(0.7)"/>
     <use xlink:href="#DejaVuSans-20" transform="translate(103.479258 0.09375)"/>
     <use xlink:href="#DejaVuSans-61" transform="translate(135.266367 0.09375)"/>
     <use xlink:href="#DejaVuSans-63" transform="translate(196.545664 0.09375)"/>
     <use xlink:href="#DejaVuSans-63" transform="translate(251.526133 0.09375)"/>
     <use xlink:href="#DejaVuSans-75" transform="translate(306.506602 0.09375)"/>
     <use xlink:href="#DejaVuSans-72" transform="translate(369.885508 0.09375)"/>
     <use xlink:href="#DejaVuSans-61" transform="translate(410.998789 0.09375)"/>
     <use xlink:href="#DejaVuSans-63" transform="translate(472.278086 0.09375)"/>
     <use xlink:href="#DejaVuSans-79" transform="translate(527.258555 0.09375)"/>
    </g>
   </g>
  </g>
 </g>
 <defs>
  <clipPath id="p82a9c1c07f">
   <rect x="43.78125" y="22.8" width="357.12" height="266.112"/>
  </clipPath>
 </defs>
</svg>
